<?xml version="1.0" encoding="UTF-8"?>
<svg version="1.1" xmlns="http://www.w3.org/2000/svg" width="555" height="450">
<path d="M0 0 C1.33156631 -0.00642769 1.33156631 -0.00642769 2.69003296 -0.01298523 C4.56076205 -0.01869912 6.43151335 -0.01925063 8.30224609 -0.01489258 C11.11986654 -0.01175061 13.93641656 -0.0351663 16.75390625 -0.06054688 C30.01212431 -0.10855182 42.45581347 0.8528869 54.7109375 6.42578125 C55.37601318 6.72363525 56.04108887 7.02148926 56.72631836 7.32836914 C74.71481799 15.79852405 85.81385876 32.65282314 93.6484375 50.23828125 C94.77290934 52.71817044 95.90455611 55.19477501 97.03515625 57.671875 C97.32091019 58.30060516 97.60666412 58.92933533 97.90107727 59.57711792 C100.99149216 66.36485311 104.21694674 73.08539081 107.4609375 79.80078125 C107.97994629 80.87835693 108.49895508 81.95593262 109.03369141 83.06616211 C111.51833123 88.21017424 114.03439537 93.33609543 116.59765625 98.44140625 C119.27431288 103.77641311 121.85294018 109.15223161 124.3984375 114.55078125 C127.75562326 121.64642047 131.20472525 128.68343157 134.76074219 135.68115234 C136.90732688 139.94915788 138.81518899 144.26363651 140.6484375 148.67578125 C142.38646623 152.84610562 144.24087974 156.6662833 146.6484375 160.48828125 C148.70970386 163.76080723 150.16913285 166.82193404 151.3984375 170.48828125 C153.24638633 175.96974972 155.82000991 180.87002421 158.61865234 185.91088867 C158.94945801 186.50877197 159.28026367 187.10665527 159.62109375 187.72265625 C159.91508057 188.2444043 160.20906738 188.76615234 160.51196289 189.30371094 C161.69109852 191.63181364 162.69297372 194.02309509 163.7099762 196.42541504 C165.03372041 199.47719532 166.49621067 202.46148975 167.95703125 205.44921875 C168.27624039 206.10604645 168.59544952 206.76287415 168.92433167 207.43960571 C169.93500045 209.51908108 170.9477147 211.59754925 171.9609375 213.67578125 C173.29473402 216.4119055 174.62713909 219.14869448 175.95703125 221.88671875 C176.43564857 222.87193008 176.43564857 222.87193008 176.92393494 223.87704468 C178.58225785 227.30543432 180.19007405 230.74682247 181.7109375 234.23828125 C183.61069664 238.59307419 185.81965662 242.75246131 188.0859375 246.92578125 C190.45858217 251.2987357 192.7110247 255.62770436 194.62231445 260.22705078 C196.58268088 264.73838984 198.78554953 269.14110674 200.93304443 273.56555176 C201.85539224 275.46586384 202.77582552 277.36709298 203.69580078 279.26855469 C204.98640129 281.93558076 206.27776308 284.60223592 207.56982422 287.26855469 C209.47380191 291.1978565 211.37615232 295.12794309 213.27734375 299.05859375 C213.73177605 299.99805595 213.73177605 299.99805595 214.19538879 300.95649719 C216.80552237 306.354532 219.40502839 311.75765168 222.00488281 317.16064453 C223.35996809 319.96275174 224.73075791 322.75629601 226.109375 325.546875 C231.58107378 336.70549823 235.49487217 346.43192308 231.76953125 358.8046875 C227.72295735 369.89467036 222.4047278 374.92848327 211.86328125 379.953125 C206.26374832 382.21258566 201.12127396 382.4533272 195.1315918 382.46191406 C194.29824814 382.46687897 193.46490448 382.47184387 192.60630798 382.47695923 C189.85341556 382.49154137 187.10058094 382.49837976 184.34765625 382.50390625 C183.40134653 382.50673363 182.45503681 382.509561 181.48005104 382.51247406 C176.46252794 382.52745847 171.44503349 382.53668995 166.42749023 382.54101562 C161.28481075 382.54646883 156.14240025 382.57043185 150.9998045 382.59898758 C147.01279485 382.61777718 143.02584753 382.62282837 139.03879738 382.6243515 C137.14569456 382.62734688 135.252592 382.63526765 133.35953331 382.64853668 C117.6199638 382.75089658 102.65157819 382.03292646 88.5234375 374.30078125 C87.66105469 373.83542969 86.79867188 373.37007813 85.91015625 372.890625 C77.35369356 368.02162119 71.09026693 362.43147893 65.3359375 354.48828125 C64.93181641 353.93205078 64.52769531 353.37582031 64.11132812 352.80273438 C60.69032653 347.90359134 58.09834556 342.68203287 55.5234375 337.30078125 C55.11601318 336.45717041 54.70858887 335.61355957 54.28881836 334.74438477 C53.04665729 332.16269139 51.81462032 329.5764142 50.5859375 326.98828125 C50.1542627 326.08053955 49.72258789 325.17279785 49.27783203 324.23754883 C45.97562821 317.28167205 42.72048804 310.30570093 39.5234375 303.30078125 C35.06547336 303.89685555 31.58065739 305.69842082 27.7109375 307.86328125 C26.37724707 308.59157693 25.04257728 309.31808147 23.70703125 310.04296875 C23.0197998 310.41647461 22.33256836 310.78998047 21.62451172 311.17480469 C18.20487868 313.00740375 14.74423065 314.75495952 11.2734375 316.48828125 C10.59829102 316.82545166 9.92314453 317.16262207 9.22753906 317.51000977 C5.50527403 319.35521572 1.76012461 321.11788207 -2.0390625 322.80078125 C-7.00778247 325.01816524 -11.78076318 327.55666248 -16.56518555 330.13964844 C-21.29086061 332.68502406 -26.05236232 335.14691798 -30.8515625 337.55078125 C-31.4808667 337.86764893 -32.1101709 338.1845166 -32.75854492 338.51098633 C-36.097198 340.1752907 -39.45898178 341.74375298 -42.87890625 343.234375 C-47.59530151 345.31099679 -52.12414437 347.67919466 -56.6640625 350.11328125 C-63.58929658 353.79652522 -70.55124101 357.37475011 -77.59375 360.828125 C-80.44307669 362.23579919 -80.44307669 362.23579919 -82.921875 363.8046875 C-86.00023674 365.60745898 -89.19327172 366.9071291 -92.4765625 368.30078125 C-94.40467388 369.24531556 -96.31296119 370.22348119 -98.22167969 371.20654297 C-112.8700856 378.74479959 -126.31339189 382.61717126 -142.91015625 382.6015625 C-143.94995132 382.60584763 -144.9897464 382.61013275 -146.06105042 382.61454773 C-148.24162066 382.62024422 -150.4222099 382.62082626 -152.6027832 382.61645508 C-155.90284181 382.613292 -159.2020046 382.63682523 -162.50195312 382.66210938 C-178.4058711 382.71058824 -193.91553017 382.75625013 -205.953125 370.8515625 C-214.3077752 361.31311007 -217.24325921 352.59288271 -216.859375 339.9375 C-215.97007118 331.48911367 -212.14174311 324.37891021 -208.3046875 316.91796875 C-205.96695017 312.34539674 -203.79601319 307.69328759 -201.6015625 303.05078125 C-198.574589 296.65521625 -195.49373293 290.29661305 -192.2890625 283.98828125 C-189.31976442 278.13239123 -186.63841211 272.19067756 -184.04785156 266.15893555 C-181.1277214 259.40136985 -177.82330571 252.85633248 -174.4765625 246.30078125 C-167.18026392 231.90813639 -160.13574454 217.38714878 -153.359375 202.7421875 C-153.04685791 202.06679932 -152.73434082 201.39141113 -152.41235352 200.69555664 C-151.60835388 198.95112242 -150.80977876 197.20419077 -150.01171875 195.45703125 C-148.86533494 193.10008948 -147.67810257 190.87270258 -146.36328125 188.61328125 C-144.70575156 185.70316702 -143.62618231 182.93561318 -142.51953125 179.79296875 C-141.0908153 176.37903326 -139.31172021 173.16935916 -137.5390625 169.92578125 C-134.89551746 165.07908444 -132.57789052 160.31188367 -130.64355469 155.13305664 C-129.23964519 151.72578591 -127.60171537 148.45852549 -125.93359375 145.17578125 C-121.67734387 136.73037996 -117.51803673 128.23973231 -113.37966919 119.73605347 C-112.13620648 117.181044 -110.89124363 114.62676878 -109.64624023 112.07250977 C-104.6213353 101.75532634 -99.62336591 91.42644257 -94.77416992 81.02514648 C-90.83840915 72.67922887 -86.68593366 64.93030693 -77.84765625 61.1875 C-68.78587492 58.44845291 -59.73375785 59.00673237 -51.0390625 62.80078125 C-42.76442081 70.87360241 -38.30851928 81.43876872 -33.4765625 91.73828125 C-33.12335938 92.48907959 -32.77015625 93.23987793 -32.40625 94.01342773 C-30.4051406 98.27921858 -28.46873333 102.56445687 -26.6015625 106.890625 C-25.65378413 108.92110851 -24.65062603 110.88841191 -23.6015625 112.8671875 C-13.17496178 132.65709415 -9.71509174 152.54241035 -16.1640625 174.36328125 C-18.39257132 181.47851563 -21.46448698 188.01609121 -24.7890625 194.67578125 C-25.95775951 197.05563209 -27.12573479 199.4358375 -28.29296875 201.81640625 C-28.84742676 202.94111328 -29.40188477 204.06582031 -29.97314453 205.22460938 C-31.46783171 208.28291702 -32.91842531 211.35596464 -34.32397461 214.45605469 C-38.39236634 223.33454656 -42.85807662 231.57697458 -47.4765625 240.30078125 C-0.4515625 240.79578125 -0.4515625 240.79578125 47.5234375 241.30078125 C43.2334375 232.39078125 38.9434375 223.48078125 34.5234375 214.30078125 C30.2109375 205.11328125 30.2109375 205.11328125 28.359375 201.15625 C26.09435824 196.36053613 23.70098845 191.63018884 21.3112793 186.89575195 C19.04253285 182.38575561 16.92615234 177.82653456 14.87109375 173.21484375 C12.84316215 168.82980904 10.65791843 164.5251497 8.46484375 160.22070312 C6.77157428 156.8781892 5.16082197 153.52063454 3.66064453 150.08666992 C1.66721996 145.58115626 -0.45874515 141.15303649 -2.63671875 136.734375 C-3.43331368 135.10943717 -4.22977685 133.48443474 -5.02612305 131.859375 C-5.43680023 131.0226123 -5.84747742 130.18584961 -6.27059937 129.32373047 C-12.67710143 116.26565624 -18.99202906 103.18924722 -24.95825195 89.9230957 C-27.3531283 84.63312632 -29.9087477 79.50193168 -32.7265625 74.42578125 C-35.66315679 69.04908903 -38.14994129 63.6188637 -40.4140625 57.92578125 C-40.70893555 57.2002002 -41.00380859 56.47461914 -41.30761719 55.72705078 C-45.35738814 45.188497 -45.16753854 35.21406223 -41.0625 24.66796875 C-36.04397766 13.44939677 -28.99333728 6.77022728 -17.4765625 2.30078125 C-11.52055423 0.5578172 -6.18849128 -0.00676701 0 0 Z M-16.4765625 30.30078125 C-19.6532183 35.04488817 -19.81040318 39.27546757 -18.7265625 44.80078125 C-16.68327911 51.78199949 -13.16434393 58.00229846 -9.6328125 64.3203125 C-7.65497493 67.88675742 -6.04364051 71.53303573 -4.4765625 75.30078125 C-3.27410437 77.95922784 -2.03344645 80.59923882 -0.7890625 83.23828125 C-0.26687134 84.34743896 -0.26687134 84.34743896 0.26586914 85.47900391 C2.59980002 90.41138133 5.0035154 95.30392044 7.4609375 100.17578125 C12.96654717 111.09184191 18.14542523 122.16390106 23.28662109 133.25537109 C27.19046023 141.67129626 31.30167694 149.97652569 35.51269531 158.24267578 C39.59243015 166.25155121 43.41768609 174.26671341 46.88842773 182.56396484 C48.48897943 186.2920481 50.28642131 189.91199851 52.125 193.52734375 C55.19758676 199.62030244 58.20734079 205.74047791 61.171875 211.88671875 C61.55998352 212.6899054 61.94809204 213.49309204 62.34796143 214.32061768 C63.94172932 217.61941946 65.53454675 220.91865607 67.12158203 224.22070312 C68.30127161 226.67370094 69.48612041 229.12414823 70.671875 231.57421875 C71.03018402 232.32303314 71.38849304 233.07184753 71.75765991 233.84335327 C73.70508239 237.86745569 73.70508239 237.86745569 76.5234375 241.30078125 C79.07065086 241.49827478 81.51795209 241.57769897 84.06640625 241.57421875 C85.63216799 241.59455507 87.19792311 241.61540653 88.76367188 241.63671875 C91.21612081 241.65904242 93.66830475 241.67567759 96.12084961 241.68164062 C116.85986711 241.76655829 136.05667972 246.44355087 151.5234375 261.30078125 C156.88024404 266.80048919 160.7021905 272.59037405 164.2734375 279.36328125 C165.03986572 280.79305298 165.03986572 280.79305298 165.82177734 282.25170898 C170.9077888 291.8383312 175.57575311 301.61464817 180.17236328 311.44287109 C181.54317882 314.34253982 182.94779767 317.22346115 184.36328125 320.1015625 C184.8207373 321.03863037 185.27819336 321.97569824 185.74951172 322.94116211 C186.61001087 324.70193139 187.47702475 326.4595394 188.35205078 328.21313477 C191.95361038 335.63994868 193.83940683 342.55611527 193.6484375 350.86328125 C193.63039063 351.89582031 193.61234375 352.92835938 193.59375 353.9921875 C193.57054687 354.75402344 193.54734375 355.51585937 193.5234375 356.30078125 C198.05163302 356.65593384 201.47243829 356.83700534 205.5859375 354.73828125 C207.77699409 352.38180034 207.77699409 352.38180034 208.0859375 349.05078125 C207.60241852 345.82732135 207.15208909 344.26033159 205.703125 341.4921875 C205.34065674 340.79077637 204.97818848 340.08936523 204.60473633 339.36669922 C204.24790771 338.68494629 203.8910791 338.00319336 203.5234375 337.30078125 C194.00801305 318.4686303 184.87422841 299.45403755 176.0234375 280.30078125 C171.58852616 270.70629986 167.09711345 261.14220839 162.5234375 251.61328125 C161.99556641 250.50919922 161.46769531 249.40511719 160.92382812 248.26757812 C158.30921282 242.84082855 155.612718 237.51204102 152.58935547 232.30053711 C151.41855913 230.1040202 150.52392683 227.87935354 149.6484375 225.55078125 C148.07603508 221.43441069 146.15185327 217.65910089 144.0234375 213.80078125 C141.97605865 210.08260274 140.08722486 206.45835226 138.5859375 202.48828125 C136.08486511 195.90035014 132.7976449 189.7008488 129.60546875 183.42822266 C127.81713572 179.91208232 126.04397262 176.38840829 124.2734375 172.86328125 C123.95665039 172.2379248 123.63986328 171.61256836 123.31347656 170.96826172 C121.71634895 167.79160339 120.19963159 164.59868929 118.77734375 161.33984375 C115.94807486 154.90925125 112.84242256 148.60867498 109.77026367 142.29174805 C108.72203529 140.13610345 107.67626056 137.97928247 106.63085938 135.82226562 C101.08243302 124.38707428 95.42114725 113.01141418 89.6640625 101.6796875 C88.48134325 99.2129888 87.40901099 96.70844905 86.34033203 94.19067383 C84.91006104 90.88172949 83.37316154 87.62359785 81.8359375 84.36328125 C81.49143555 83.63109375 81.14693359 82.89890625 80.79199219 82.14453125 C78.03174341 76.30871969 75.16442375 70.53109974 72.24560547 64.77319336 C70.52578431 61.36641114 68.91532518 57.95344498 67.4609375 54.42578125 C62.21893493 42.37837184 53.66388417 33.20830924 41.5234375 28.30078125 C32.34133064 25.15630986 23.38315207 24.77216605 13.78662109 24.79980469 C11.39430392 24.80078294 9.00514306 24.75889277 6.61328125 24.71484375 C-1.77323241 24.64863343 -9.65636799 24.67279144 -16.4765625 30.30078125 Z M-68.4765625 84.30078125 C-68.92386719 85.26757812 -69.37117188 86.234375 -69.83203125 87.23046875 C-73.82940346 95.84831008 -77.96158122 104.37424866 -82.28125 112.8359375 C-86.29860133 120.75040779 -90.05144221 128.73648245 -93.61645508 136.86474609 C-95.88260904 142.01443749 -98.27469628 147.07407858 -100.83569336 152.08520508 C-106.51308788 163.21107374 -112.00286944 174.41017149 -117.29034424 185.72625732 C-119.01837349 189.42383651 -120.75375893 193.11796342 -122.48828125 196.8125 C-122.83036621 197.54152527 -123.17245117 198.27055054 -123.52490234 199.02166748 C-130.30805807 213.47052293 -137.14731208 227.89304311 -144.40087891 242.11279297 C-147.96104179 249.09946073 -151.44358062 256.0644821 -154.4765625 263.30078125 C-156.82439101 268.8965441 -159.41573206 274.30009724 -162.1640625 279.70483398 C-165.20809666 285.70810827 -168.09589216 291.78021622 -170.9765625 297.86328125 C-174.43500985 305.15795948 -178.02880201 312.33257525 -181.89916992 319.41625977 C-184.14352682 323.56345381 -186.0228481 327.74392126 -187.66796875 332.16015625 C-188.43071819 334.17941563 -189.30617546 336.09973038 -190.2265625 338.05078125 C-191.56922785 341.54171117 -192.02668253 343.60711821 -191.4765625 347.30078125 C-189.12985456 351.73345181 -186.93147201 354.06826143 -182.4765625 356.30078125 C-179.86915782 356.74822425 -179.86915782 356.74822425 -177.1105957 356.68896484 C-176.06212967 356.69842133 -175.01366364 356.70787781 -173.9334259 356.71762085 C-172.80941879 356.71154816 -171.68541168 356.70547546 -170.52734375 356.69921875 C-169.3595488 356.70208893 -168.19175385 356.70495911 -166.98857117 356.70791626 C-164.51817337 356.70995635 -162.04775941 356.70443039 -159.57739258 356.69189453 C-155.82010123 356.67591327 -152.06389748 356.69170871 -148.30664062 356.7109375 C-145.90103931 356.70895365 -143.49543867 356.70510704 -141.08984375 356.69921875 C-139.41901482 356.70832779 -139.41901482 356.70832779 -137.71443176 356.71762085 C-127.85383552 356.63000179 -119.90903674 354.41833228 -111.3515625 349.61328125 C-110.05566588 348.89926308 -108.7587557 348.18708196 -107.4609375 347.4765625 C-106.80416016 347.1151416 -106.14738281 346.7537207 -105.47070312 346.38134766 C-102.21601482 344.61772738 -98.91394681 342.95289512 -95.6015625 341.30078125 C-94.94075684 340.97118408 -94.27995117 340.64158691 -93.59912109 340.30200195 C-88.04980811 337.55281948 -82.44711263 334.92280012 -76.83691406 332.30078125 C-66.74409341 327.57078201 -56.79414061 322.57805158 -46.9765625 317.30078125 C-36.46311934 311.64946062 -25.78925285 306.35476675 -14.9765625 301.30078125 C-3.37963837 295.87596393 8.08645216 290.34254619 19.0703125 283.74609375 C21.18702914 282.49898363 23.31088738 281.36570023 25.5234375 280.30078125 C23.09014066 274.61505794 18.47288337 272.5827274 12.98016357 270.19537354 C4.69184851 267.15436569 -2.89512184 266.77229722 -11.6484375 266.91015625 C-13.06617424 266.91763837 -14.48392148 266.92332195 -15.90167236 266.92730713 C-19.59091944 266.94240896 -23.2795129 266.98155156 -26.96850586 267.02612305 C-30.74974736 267.06741458 -34.5310969 267.08538962 -38.3125 267.10546875 C-45.7008153 267.14806572 -53.08859651 267.21612247 -60.4765625 267.30078125 C-61.48140454 269.2566345 -62.48030055 271.21554362 -63.4765625 273.17578125 C-64.0334375 274.26632812 -64.5903125 275.356875 -65.1640625 276.48046875 C-66.61720344 279.08453207 -66.61720344 279.08453207 -66.4765625 281.30078125 C-67.1365625 281.30078125 -67.7965625 281.30078125 -68.4765625 281.30078125 C-68.69715332 281.87328613 -68.91774414 282.44579102 -69.14501953 283.03564453 C-71.95574681 290.20691276 -75.07990861 297.2039445 -78.3515625 304.17578125 C-78.85558594 305.28953125 -79.35960937 306.40328125 -79.87890625 307.55078125 C-84.66570741 317.71202156 -84.66570741 317.71202156 -90.4765625 320.30078125 C-93.27482935 321.04664282 -95.65937823 320.96727216 -98.4765625 320.30078125 C-101.49132807 318.53619924 -103.88982928 316.47424768 -105.4765625 313.30078125 C-106.15601565 305.56723022 -104.28547127 300.50520138 -100.9140625 293.61328125 C-100.45443115 292.6399585 -99.9947998 291.66663574 -99.52124023 290.66381836 C-98.19300375 287.86590528 -96.84137961 285.08100329 -95.4765625 282.30078125 C-95.15204102 281.63884766 -94.82751953 280.97691406 -94.49316406 280.29492188 C-93.14065575 277.5527229 -91.76453276 274.8232651 -90.37890625 272.09765625 C-87.87462222 267.14100461 -85.49417635 262.12450532 -83.1015625 257.11328125 C-82.62944336 256.12457031 -82.15732422 255.13585937 -81.67089844 254.1171875 C-79.45477856 249.46925959 -77.24623031 244.81788446 -75.05078125 240.16015625 C-71.33359664 232.2746185 -67.568384 224.42502767 -63.63818359 216.64331055 C-60.14875282 209.70645934 -56.82504774 202.69150122 -53.48852539 195.68017578 C-50.8924851 190.23362599 -48.25753637 184.81217729 -45.5390625 179.42578125 C-45.00152344 178.34425781 -44.46398437 177.26273437 -43.91015625 176.1484375 C-43.03595474 174.41194458 -42.13800373 172.68681993 -41.19921875 170.984375 C-37.70912844 164.24017913 -37.13473694 156.81672352 -37.4765625 149.30078125 C-37.51241455 148.48988037 -37.5482666 147.67897949 -37.58520508 146.84350586 C-38.71458915 136.13454148 -44.11781166 126.94294448 -48.9140625 117.48828125 C-50.22823356 114.86066373 -51.53797055 112.23087461 -52.84693909 109.60066223 C-53.65759038 107.97580914 -54.47208401 106.3528651 -55.29112244 104.73222351 C-57.51896681 100.31156574 -59.57382969 95.87108121 -61.4765625 91.30078125 C-62.80085523 87.98272983 -62.80085523 87.98272983 -64.4765625 85.30078125 C-66.52004549 84.60331787 -66.52004549 84.60331787 -68.4765625 84.30078125 Z M48.5234375 267.30078125 C48.8534375 268.29078125 49.1834375 269.28078125 49.5234375 270.30078125 C50.1834375 270.30078125 50.8434375 270.30078125 51.5234375 270.30078125 C51.80324463 271.02410645 52.08305176 271.74743164 52.37133789 272.49267578 C53.45967151 275.14535926 54.66093973 277.6738967 55.95703125 280.23046875 C56.43575684 281.17954102 56.91448242 282.12861328 57.40771484 283.10644531 C57.92027832 284.11932617 58.4328418 285.13220703 58.9609375 286.17578125 C63.19751285 294.59232419 67.35045285 303.04192456 71.3984375 311.55078125 C72.08715942 312.99432983 72.08715942 312.99432983 72.78979492 314.46704102 C76.16461924 321.54065798 76.16461924 321.54065798 77.46777344 324.30126953 C82.96619531 335.92955749 89.34813312 347.53675583 101.5234375 353.30078125 C109.60236345 355.93738532 117.2572318 356.73884692 125.7109375 356.6640625 C127.36923584 356.66481026 127.36923584 356.66481026 129.06103516 356.66557312 C131.37355366 356.66325185 133.68607563 356.65364006 135.99853516 356.63696289 C139.5422198 356.61315506 143.08516075 356.61644362 146.62890625 356.62304688 C148.88542115 356.617476 151.14193291 356.61036986 153.3984375 356.6015625 C154.45571045 356.60247391 155.5129834 356.60338531 156.60229492 356.60432434 C157.58431885 356.59479233 158.56634277 356.58526031 159.578125 356.57543945 C160.43905762 356.57083206 161.29999023 356.56622467 162.18701172 356.56147766 C164.74167266 356.27643076 166.35703241 355.66954612 168.5234375 354.30078125 C170.07467109 351.19831407 169.77562132 348.74028835 169.5234375 345.30078125 C168.45404816 342.68987855 167.37005242 340.37898658 166.0234375 337.92578125 C165.28709681 336.52186256 164.55278883 335.11687623 163.8203125 333.7109375 C163.44068359 332.98922363 163.06105469 332.26750977 162.66992188 331.52392578 C160.77478312 327.84906772 159.02273477 324.109226 157.2734375 320.36328125 C156.93449463 319.64124512 156.59555176 318.91920898 156.24633789 318.17529297 C154.59943648 314.65444397 152.995367 311.12241077 151.4609375 307.55078125 C146.54357085 296.3452776 140.77358757 284.52313687 131.5234375 276.30078125 C130.8634375 276.30078125 130.2034375 276.30078125 129.5234375 276.30078125 C129.0284375 274.81578125 129.0284375 274.81578125 128.5234375 273.30078125 C125.88055753 271.85895951 125.88055753 271.85895951 122.7109375 270.67578125 C121.65261719 270.25039063 120.59429687 269.825 119.50390625 269.38671875 C115.09269298 267.7794877 111.44208627 267.16493655 106.73266602 267.07958984 C105.56788223 267.05641693 104.40309845 267.03324402 103.20301819 267.0093689 C101.94879562 266.98951935 100.69457306 266.9696698 99.40234375 266.94921875 C98.11029526 266.92606598 96.81824677 266.90291321 95.48704529 266.87905884 C92.75434506 266.83068157 90.02161485 266.78574537 87.28881836 266.74316406 C83.79399175 266.68838271 80.29940031 266.62451743 76.80478001 266.55798912 C73.46238361 266.49572775 70.11986912 266.44162414 66.77734375 266.38671875 C65.52514542 266.36282074 64.27294708 266.33892273 62.98280334 266.31430054 C61.8148674 266.29743195 60.64693146 266.28056335 59.44360352 266.26318359 C58.41864273 266.24621429 57.39368195 266.229245 56.33766174 266.21176147 C53.61658297 266.29783486 51.16974484 266.68249879 48.5234375 267.30078125 Z " fill="#061106" transform="translate(268.4765625,32.69921875)"/>
<path d="M0 0 C0.66 0.33 1.32 0.66 2 1 C0.99806563 4.79303725 0.18975773 7.71536341 -2 11 C45.025 11.495 45.025 11.495 93 12 C93.33 11.34 93.66 10.68 94 10 C94.495 11.485 94.495 11.485 95 13 C85.1 13.33 75.2 13.66 65 14 C65 14.33 65 14.66 65 15 C56.75906417 15.02320931 48.5181421 15.04095881 40.27718163 15.05181217 C36.45023821 15.05702223 32.62331723 15.0640857 28.79638672 15.07543945 C25.10055955 15.08633515 21.4047539 15.09229097 17.7089119 15.09487724 C16.30157762 15.09671947 14.89424447 15.10031683 13.4869194 15.10573006 C11.51000882 15.11302913 9.5330764 15.11340881 7.55615234 15.11352539 C6.43252289 15.115746 5.30889343 15.11796661 4.1512146 15.12025452 C1.02052394 15.00078322 -1.92519784 14.58511337 -5 14 C-4.67 12.02 -4.34 10.04 -4 8 C-3.01 7.67 -2.02 7.34 -1 7 C-0.67 4.69 -0.34 2.38 0 0 Z " fill="#676D65" transform="translate(223,262)"/>
<path d="M0 0 C6.43567751 -0.25237951 6.43567751 -0.25237951 9.2195282 0.99263 C12.91888243 2.33291278 16.41851451 2.27123284 20.30004883 2.24291992 C21.53543396 2.24576744 21.53543396 2.24576744 22.79577637 2.24867249 C25.51629191 2.2523732 28.23653941 2.24167568 30.95703125 2.23046875 C32.86211618 2.22927513 34.7672017 2.22882417 36.67228699 2.2290802 C40.67112909 2.22751589 44.66988162 2.21923786 48.66870117 2.20581055 C53.75075387 2.18894779 58.83270705 2.18499281 63.91478443 2.18575573 C67.85547303 2.18548114 71.79614061 2.17995212 75.73682213 2.17275429 C77.60757984 2.16960774 79.4783399 2.16760979 81.34910011 2.16686058 C92.6083901 2.15742593 103.77064125 1.85907831 115 1 C110.83998786 5.16001214 104.22758658 5.22740101 98.59777832 5.28216553 C97.82881226 5.27968811 97.05984619 5.27721069 96.26757812 5.2746582 C95.43379639 5.27976913 94.60001465 5.28488007 93.7409668 5.29014587 C91.00431992 5.30396065 88.26792747 5.30309006 85.53125 5.30078125 C83.6080313 5.30467495 81.68481344 5.309011 79.76159668 5.31376648 C75.73361423 5.32121305 71.70571943 5.32095046 67.67773438 5.31567383 C62.558658 5.30990637 57.43994666 5.32675173 52.32093048 5.3500185 C48.34678101 5.36488137 44.37271666 5.36561021 40.39854431 5.36250877 C38.51382225 5.36301654 36.62909471 5.3681498 34.74440002 5.37832069 C23.3233184 5.43235889 12.05463736 5.22426923 1 2 C0.67 1.34 0.34 0.68 0 0 Z " fill="#636763" transform="translate(367,410)"/>
<path d="M0 0 C7.72295318 -0.05075968 15.44586324 -0.08575878 23.16894531 -0.10986328 C25.79558927 -0.11991339 28.42222207 -0.1335556 31.04882812 -0.15087891 C34.82685098 -0.17517028 38.60472573 -0.18649319 42.3828125 -0.1953125 C43.55490265 -0.20563507 44.7269928 -0.21595764 45.93460083 -0.22659302 C55.98392746 -0.22797222 55.98392746 -0.22797222 61 2 C61.69867188 2.28101563 62.39734375 2.56203125 63.1171875 2.8515625 C64.74479167 3.56770833 66.37239583 4.28385417 68 5 C68 5.66 68 6.32 68 7 C67.34243713 6.78896637 66.68487427 6.57793274 66.00738525 6.36050415 C58.9631045 4.24948442 52.56373957 3.54692765 45.234375 3.5234375 C44.15673889 3.50785797 43.07910278 3.49227844 41.96881104 3.47622681 C38.56254728 3.42914826 35.15648329 3.40109221 31.75 3.375 C28.32937648 3.33835391 24.90886229 3.29763358 21.48834229 3.25234985 C19.37036592 3.22539495 17.25231025 3.20392869 15.13421631 3.18881226 C9.98826539 3.13408866 5.07246569 2.88259133 0 2 C0 1.34 0 0.68 0 0 Z " fill="#212821" transform="translate(324,297)"/>
<path d="M0 0 C1.125 3.75 1.125 3.75 0 6 C-2.96644279 7.04159385 -5.76517672 7.12646936 -8.88867188 7.12939453 C-9.85647583 7.13254669 -10.82427979 7.13569885 -11.82141113 7.13894653 C-12.86003296 7.1369223 -13.89865479 7.13489807 -14.96875 7.1328125 C-16.57743958 7.13424759 -16.57743958 7.13424759 -18.21862793 7.13571167 C-20.4847825 7.13639179 -22.75093902 7.13454922 -25.01708984 7.13037109 C-28.48669814 7.12502051 -31.95617698 7.13032181 -35.42578125 7.13671875 C-37.62760445 7.13605794 -39.82942757 7.13477671 -42.03125 7.1328125 C-43.58918274 7.13584885 -43.58918274 7.13584885 -45.17858887 7.13894653 C-46.14639282 7.13579437 -47.11419678 7.13264221 -48.11132812 7.12939453 C-48.9608606 7.12859894 -49.81039307 7.12780334 -50.68566895 7.12698364 C-52.9199319 7.00439321 -54.85624042 6.62234818 -57 6 C-57 5.34 -57 4.68 -57 4 C-57.99 3.67 -58.98 3.34 -60 3 C-58.96096527 3.00333092 -58.96096527 3.00333092 -57.90093994 3.00672913 C-50.69861364 3.0288337 -43.49629696 3.04392829 -36.29394531 3.05493164 C-33.60513148 3.05939946 -30.91634118 3.06636119 -28.22753906 3.07543945 C-24.3652275 3.08755371 -20.50295208 3.09323945 -16.640625 3.09765625 C-15.4363385 3.10281754 -14.232052 3.10797882 -12.99127197 3.11329651 C-11.87041199 3.11337204 -10.749552 3.11344757 -9.59472656 3.11352539 C-8.60877502 3.115746 -7.62282349 3.11796661 -6.60699463 3.12025452 C-4.2458566 3.01134079 -2.25666764 2.67399991 0 2 C0 1.34 0 0.68 0 0 Z " fill="#565B55" transform="translate(437,385)"/>
<path d="M0 0 C1.77488045 0.00760597 1.77488045 0.00760597 3.58561707 0.0153656 C4.23966019 0.01142288 4.89370331 0.00748016 5.56756592 0.00341797 C7.73085535 -0.00329737 9.89203568 0.02588492 12.05509949 0.05613708 C13.56101065 0.06038851 15.06692837 0.06271591 16.57284546 0.0632019 C19.73137561 0.06937114 22.88919766 0.09208056 26.04753113 0.12767029 C30.08596537 0.17282704 34.12375593 0.18769005 38.16241932 0.1914072 C41.27409152 0.19584931 44.38562998 0.21117873 47.49724388 0.23028374 C48.98550508 0.23913457 50.47378041 0.2458797 51.96206093 0.25044441 C54.04905917 0.25954536 56.1354926 0.28198842 58.22233582 0.30833435 C59.40797623 0.31897415 60.59361664 0.32961395 61.81518555 0.34057617 C65.24708968 0.62717567 67.95010668 1.21775117 71.09806824 2.61473083 C71.59306824 4.09973083 71.59306824 4.09973083 72.09806824 5.61473083 C70.91994568 5.29327087 69.74182312 4.97181091 68.52799988 4.64060974 C61.81655852 3.15781999 55.06152371 3.25807219 48.21916199 3.20066833 C46.79711831 3.18192373 45.37508536 3.16234796 43.95306396 3.14198303 C40.23948036 3.09100296 36.52586082 3.05119648 32.81211853 3.01383972 C29.01086287 2.97358406 25.20975223 2.92259095 21.40861511 2.87254333 C13.97186622 2.77618906 6.5350462 2.691657 -0.90193176 2.61473083 C-1.34665833 3.78068787 -1.34665833 3.78068787 -1.80036926 4.97019958 C-2.8800643 7.56223342 -4.13685363 9.44849859 -5.90193176 11.61473083 C-6.27698107 6.23902409 -6.00020188 1.27105301 0 0 Z " fill="#6B726A" transform="translate(208.9019317626953,297.38526916503906)"/>
<path d="M0 0 C1 3 1 3 -0.66015625 6.51953125 C-1.45287836 7.95500102 -2.25423082 9.38572646 -3.0625 10.8125 C-6.6461508 17.3366178 -9.74955601 23.84475109 -12.6015625 30.72265625 C-14.82678268 35.93762757 -17.41571765 40.95614598 -20 46 C-20.96034928 47.91565737 -21.91882204 49.83225716 -22.875 51.75 C-23.58333333 53.16666667 -24.29166667 54.58333333 -25 56 C-26 54 -26 54 -25.0625 50.875 C-24.711875 49.92625 -24.36125 48.9775 -24 48 C-23.34 48 -22.68 48 -22 48 C-22.495 46.515 -22.495 46.515 -23 45 C-22.07421875 42.3359375 -22.07421875 42.3359375 -20.6875 39.375 C-20.23761719 38.39273438 -19.78773438 37.41046875 -19.32421875 36.3984375 C-18 34 -18 34 -16 33 C-16.06960937 32.33613281 -16.13921875 31.67226562 -16.2109375 30.98828125 C-16.64924981 23.83961626 -16.64924981 23.83961626 -14.734375 21.36328125 C-13.20015027 20.18282193 -11.60076605 19.08852091 -10 18 C-8.62745412 15.85019503 -8.62745412 15.85019503 -8 14 C-7.34 14 -6.68 14 -6 14 C-6 12.68 -6 11.36 -6 10 C-5.34 10 -4.68 10 -4 10 C-3.67 7.36 -3.34 4.72 -3 2 C-2.01 2 -1.02 2 0 2 C0 1.34 0 0.68 0 0 Z " fill="#0D150E" transform="translate(187,142)"/>
<path d="M0 0 C0.763125 0.804375 1.52625 1.60875 2.3125 2.4375 C5.94701485 5.90296765 8.37561866 6.12528542 13.20239258 6.12939453 C14.79468437 6.13412277 14.79468437 6.13412277 16.41914368 6.13894653 C17.56602158 6.1369223 18.71289948 6.13489807 19.89453125 6.1328125 C21.07464279 6.13376923 22.25475433 6.13472595 23.47062683 6.13571167 C25.96975762 6.13639274 28.46889018 6.13454353 30.96801758 6.13037109 C34.7866618 6.1250361 38.60518764 6.13031122 42.42382812 6.13671875 C44.85156276 6.13605768 47.27929732 6.13477591 49.70703125 6.1328125 C50.84783646 6.13483673 51.98864166 6.13686096 53.16401672 6.13894653 C54.23500107 6.13579437 55.30598541 6.13264221 56.40942383 6.12939453 C57.8148217 6.12820114 57.8148217 6.12820114 59.24861145 6.12698364 C62.22880025 5.98944028 65.06897265 5.54395834 68 5 C67 7 67 7 65.24902344 7.60522461 C62.81998422 8.03159852 60.47972387 8.2112313 58.015625 8.31640625 C56.61376953 8.37924805 56.61376953 8.37924805 55.18359375 8.44335938 C54.21550781 8.48267578 53.24742187 8.52199219 52.25 8.5625 C50.77466797 8.62727539 50.77466797 8.62727539 49.26953125 8.69335938 C46.84648725 8.79922052 44.4233446 8.90130171 42 9 C42 9.33 42 9.66 42 10 C37.26777545 10.07445407 32.53589589 10.1287447 27.80322266 10.16479492 C26.19508928 10.17983176 24.58699656 10.20026672 22.97900391 10.22631836 C20.66037936 10.26292822 18.34229951 10.27977722 16.0234375 10.29296875 C14.95432632 10.31619453 14.95432632 10.31619453 13.86361694 10.33988953 C9.16276662 10.34145539 6.03165613 9.39086584 2 7 C2 6.01 2 5.02 2 4 C1.34 4 0.68 4 0 4 C0 2.68 0 1.36 0 0 Z " fill="#808480" transform="translate(78,382)"/>
<path d="M0 0 C2.87863082 0.03136671 5.75671255 0.04100342 8.63549805 0.046875 C10.47990574 0.05603926 12.3243079 0.06641319 14.16870117 0.078125 C15.4485363 0.08449982 15.4485363 0.08449982 16.75422668 0.09100342 C21.12654317 0.14319189 25.25057867 0.4120074 29.55541992 1.28125 C29.55541992 1.61125 29.55541992 1.94125 29.55541992 2.28125 C22.96184771 3.0544071 16.49986627 3.41088786 9.86401367 3.34375 C8.99269302 3.33996338 8.12137238 3.33617676 7.22364807 3.33227539 C4.48001817 3.3201955 1.73650059 3.30153883 -1.00708008 3.28125 C-4.65421214 3.25474147 -8.30129489 3.23475831 -11.94848633 3.21875 C-12.78690567 3.21045166 -13.62532501 3.20215332 -14.489151 3.19360352 C-16.47449066 3.18506974 -18.45994144 3.22780971 -20.44458008 3.28125 C-20.77458008 3.61125 -21.10458008 3.94125 -21.44458008 4.28125 C-22.95927456 4.51317865 -24.48212569 4.69340238 -26.00708008 4.84375 C-27.24651367 4.96943359 -27.24651367 4.96943359 -28.51098633 5.09765625 C-29.46811523 5.18853516 -29.46811523 5.18853516 -30.44458008 5.28125 C-29.44458008 3.28125 -29.44458008 3.28125 -27.68994141 2.43847656 C-18.57054278 -0.38520075 -9.44658889 -0.1039068 0 0 Z " fill="#707770" transform="translate(277.444580078125,32.71875)"/>
<path d="M0 0 C0.49314697 0.81114258 0.98629395 1.62228516 1.49438477 2.45800781 C4.33012378 5.33491658 5.84898346 5.60089181 9.81370544 5.69329834 C10.56483109 5.68622864 11.31595673 5.67915894 12.08984375 5.671875 C12.87138321 5.68462463 13.65292267 5.69737427 14.45814514 5.71051025 C16.95163235 5.74678233 19.44377244 5.74951863 21.9375 5.75 C24.42715275 5.77167219 26.91660434 5.80023478 29.40614319 5.83233643 C30.95314354 5.84997672 32.50024855 5.8603663 34.04734802 5.86248779 C37.82370015 5.88280796 41.32800491 6.09181879 45 7 C45 7.33 45 7.66 45 8 C36.45178772 8.88277233 27.97894096 9.15775343 19.38720703 9.13037109 C17.34270123 9.12491379 15.29840625 9.13040407 13.25390625 9.13671875 C11.96097656 9.13542969 10.66804688 9.13414062 9.3359375 9.1328125 C8.16595215 9.13168457 6.9959668 9.13055664 5.79052734 9.12939453 C3 9 3 9 1 8 C0.40644386 5.35139573 0.25790731 2.70802678 0 0 Z " fill="#636963" transform="translate(341,268)"/>
<path d="M0 0 C4.14080481 4.14080481 4.13050676 10.82773722 4.1875 16.4375 C4.15421304 20.69157393 4.15421304 20.69157393 3 23 C8.91010344 22.64826379 8.91010344 22.64826379 14.5 20.875 C16.70770258 18.11537178 16.73948037 15.45188515 17 12 C17.33 12 17.66 12 18 12 C18.30031949 21.00958466 18.30031949 21.00958466 16 24 C12.83764307 25.97647308 10.44344108 26.22219582 6.75 26.125 C5.85796875 26.10695313 4.9659375 26.08890625 4.046875 26.0703125 C3.37140625 26.04710937 2.6959375 26.02390625 2 26 C0.97495873 22.66265633 0.9589065 19.7271385 1.0625 16.25 C1.1255774 11.09026845 0.37294181 6.9425905 -1 2 C-0.67 1.34 -0.34 0.68 0 0 Z " fill="#4F574F" transform="translate(459,366)"/>
<path d="M0 0 C1.13643966 3.40931897 0.86747764 4.00335456 -0.4375 7.1875 C-0.86869141 8.26064453 -0.86869141 8.26064453 -1.30859375 9.35546875 C-1.65083984 10.16951172 -1.65083984 10.16951172 -2 11 C-2.66 11 -3.32 11 -4 11 C-4.15855469 11.53367188 -4.31710938 12.06734375 -4.48046875 12.6171875 C-6.13168144 17.89012083 -8.25387488 22.65683851 -10.79296875 27.55859375 C-12.47345284 30.95763115 -13.74221418 34.42524029 -15 38 C-15.99 38 -16.98 38 -18 38 C-16.8916631 33.89915347 -15.19230155 30.43042321 -13.125 26.75 C-11.15260596 23.22446476 -9.43140853 19.77699394 -8 16 C-5.86512679 10.37334263 -2.97662721 5.2190197 0 0 Z " fill="#5C635C" transform="translate(124,218)"/>
<path d="M0 0 C0.99 0.33 1.98 0.66 3 1 C3 2.32 3 3.64 3 5 C3.66 5 4.32 5 5 5 C5 6.32 5 7.64 5 9 C5.66 9 6.32 9 7 9 C7.99 11.97 8.98 14.94 10 18 C11.32 17.67 12.64 17.34 14 17 C14 17.99 14 18.98 14 20 C14.15373063 21.89692612 14.32166855 23.79272833 14.5 25.6875 C14.5928125 26.68136719 14.685625 27.67523438 14.78125 28.69921875 C14.8534375 29.45847656 14.925625 30.21773437 15 31 C12.65221856 28.05990021 10.95817651 25.10978358 9.3359375 21.71875 C8.85382813 20.71199219 8.37171875 19.70523438 7.875 18.66796875 C7.38 17.62253906 6.885 16.57710937 6.375 15.5 C5.87226563 14.45457031 5.36953125 13.40914062 4.8515625 12.33203125 C0.80375548 3.83381275 0.80375548 3.83381275 0 0 Z " fill="#414B41" transform="translate(367,152)"/>
<path d="M0 0 C7.56219001 -0.07621816 15.12428051 -0.12867069 22.68676758 -0.16479492 C25.2580943 -0.17985844 27.82939543 -0.2003132 30.40063477 -0.22631836 C34.10178962 -0.26280761 37.802604 -0.27975121 41.50390625 -0.29296875 C43.22148888 -0.31619453 43.22148888 -0.31619453 44.97377014 -0.33988953 C51.11241714 -0.34117676 55.57622186 0.04436477 61 3 C61 3.66 61 4.32 61 5 C60.34529221 4.78937424 59.69058441 4.57874847 59.01603699 4.36174011 C51.89599197 2.22529837 45.39734568 1.53393915 37.98828125 1.48828125 C36.89404343 1.47033005 35.7998056 1.45237885 34.67240906 1.43388367 C31.21914384 1.38022821 27.7660132 1.34602925 24.3125 1.3125 C21.95375749 1.2792874 19.59503264 1.24479417 17.23632812 1.20898438 C11.4910063 1.12452808 5.74566604 1.05599128 0 1 C0 0.67 0 0.34 0 0 Z " fill="#ABACA5" transform="translate(331,299)"/>
<path d="M0 0 C0.66 0 1.32 0 2 0 C2.33 1.051875 2.66 2.10375 3 3.1875 C4.51091605 7.31684822 6.73790624 10.83576876 9.125 14.5 C12.33618991 19.55203687 14 23.02454022 14 29 C14.66 29 15.32 29 16 29 C16.33 31.31 16.66 33.62 17 36 C14.58377333 32.37565999 12.5978869 28.59717718 10.5625 24.75 C10.16740234 24.01136719 9.77230469 23.27273437 9.36523438 22.51171875 C7.01655456 18.08009993 4.93518178 13.62611503 3 9 C2.443125 7.9275 1.88625 6.855 1.3125 5.75 C0 3 0 3 0 0 Z " fill="#636A63" transform="translate(350,116)"/>
<path d="M0 0 C0.66 0 1.32 0 2 0 C1.38444083 3.80453343 0.26321283 6.90747397 -1.3984375 10.37890625 C-1.87796875 11.38244141 -2.3575 12.38597656 -2.8515625 13.41992188 C-3.35429688 14.45697266 -3.85703125 15.49402344 -4.375 16.5625 C-4.87 17.60341797 -5.365 18.64433594 -5.875 19.71679688 C-7.98439256 24.10196457 -9.95424593 28.18081845 -13 32 C-13.25 26.375 -13.25 26.375 -11 23 C-8.79210711 18.96858423 -6.91026469 14.89553131 -5.375 10.5625 C-4 7 -4 7 -2 6 C-1.27306096 4.02111039 -0.60183749 2.02045442 0 0 Z " fill="#5E655F" transform="translate(103,314)"/>
<path d="M0 0 C-0.99 0.66 -1.98 1.32 -3 2 C-3.68835938 2.474375 -4.37671875 2.94875 -5.0859375 3.4375 C-6.21902344 4.2109375 -6.21902344 4.2109375 -7.375 5 C-8.12523437 5.515625 -8.87546875 6.03125 -9.6484375 6.5625 C-12.03498213 8.02138442 -14.39801982 8.99027635 -17 10 C-18.36365283 10.95824253 -19.70794169 11.94721175 -21 13 C-22.32 12.01 -23.64 11.02 -25 10 C-13.0859375 4.04296875 -13.0859375 4.04296875 -10.98339844 3.00146484 C-9.19114893 2.09651562 -7.42563839 1.1390786 -5.6640625 0.17578125 C-3 -1 -3 -1 0 0 Z " fill="#595F58" transform="translate(252,336)"/>
<path d="M0 0 C2.48525425 2.22402014 3.72744013 4.24244932 5 7.3125 C6.17493002 10.08714243 7.38035302 12.747122 8.75 15.4375 C10 18 10 18 10 20 C9.34 20 8.68 20 8 20 C7.34 19.34 6.68 18.68 6 18 C5.319375 17.7525 4.63875 17.505 3.9375 17.25 C2 16 2 16 1.125 13 C1.08375 12.01 1.0425 11.02 1 10 C1.66 9.34 2.32 8.68 3 8 C2.01 7.67 1.02 7.34 0 7 C0 4.69 0 2.38 0 0 Z " fill="#222A21" transform="translate(257,94)"/>
<path d="M0 0 C6.875 0.875 6.875 0.875 8 2 C9.50316769 2.1224331 11.01188167 2.17776285 12.51977539 2.20532227 C13.96115623 2.2352401 13.96115623 2.2352401 15.43165588 2.26576233 C16.476436 2.28247482 17.52121613 2.29918732 18.59765625 2.31640625 C19.66165146 2.33718735 20.72564667 2.35796844 21.82188416 2.37937927 C25.2353544 2.44499254 28.64890429 2.50381423 32.0625 2.5625 C34.37045109 2.60567403 36.678394 2.64928794 38.98632812 2.69335938 C44.65746682 2.80068584 50.32868552 2.90242992 56 3 C56 3.33 56 3.66 56 4 C48.82843832 4.07609679 41.65698086 4.12861962 34.48510742 4.16479492 C32.04561472 4.17987654 29.6061491 4.20034469 27.16674805 4.22631836 C23.65927441 4.26272812 20.15215946 4.27973289 16.64453125 4.29296875 C15.55477493 4.30845261 14.46501862 4.32393646 13.34223938 4.33988953 C3.83550645 4.34200004 3.83550645 4.34200004 0 1 C0 0.67 0 0.34 0 0 Z " fill="#111A12" transform="translate(72,409)"/>
<path d="M0 0 C1.29576129 2.59152257 0.6956367 4.02477351 -0.12109375 6.71484375 C-2.02013442 11.65234948 -4.55409285 16.31585707 -7 21 C-7.66 21 -8.32 21 -9 21 C-9.33 23.31 -9.66 25.62 -10 28 C-10.99 28.33 -11.98 28.66 -13 29 C-12.40912033 24.37879186 -10.42940147 20.7527451 -8.1875 16.75 C-5.18049374 11.26154237 -2.43107933 5.7738134 0 0 Z " fill="#595F59" transform="translate(97,273)"/>
<path d="M0 0 C4.66841019 7.00261529 4.23440296 16.39698403 3.75 24.5625 C3.71156982 25.24078857 3.67313965 25.91907715 3.63354492 26.61791992 C3.36204228 30.16433989 2.88906942 32.95735949 1 36 C1.01160156 34.82566406 1.02320313 33.65132812 1.03515625 32.44140625 C1.10775611 21.58432396 0.776464 10.82889967 0 0 Z " fill="#484F47" transform="translate(252,165)"/>
<path d="M0 0 C6.78399412 6.14799467 13.36599292 13.8087102 15 23 C10.81936815 21.60645605 9.89428735 18.6884897 7.9375 15 C5.75154649 10.26967577 5.75154649 10.26967577 2 7 C0.95191959 5.02477154 -0.0520411 3.02518491 -1 1 C-0.67 0.67 -0.34 0.34 0 0 Z " fill="#3C463F" transform="translate(343,54)"/>
<path d="M0 0 C0.87835109 3.15219021 0.98226261 4.96294031 0.0625 8.125 C-0.7657149 11.01911548 -0.7657149 11.01911548 -1 14 C-2.1446875 15.11375 -2.1446875 15.11375 -3.3125 16.25 C-6.02633951 19.02695205 -7.44202297 21.47405199 -9 25 C-9.66 25 -10.32 25 -11 25 C-8.4621689 16.11759114 -4.22230349 8.17381793 0 0 Z " fill="#494F49" transform="translate(72,325)"/>
<path d="M0 0 C1.05307179 2.71343652 1.02832864 3.90945183 0.14453125 6.734375 C-0.29503906 7.72953125 -0.73460937 8.7246875 -1.1875 9.75 C-1.64898437 10.801875 -2.11046875 11.85375 -2.5859375 12.9375 C-4.31042633 16.67230453 -6.10435052 20.34911953 -8 24 C-8.66 24 -9.32 24 -10 24 C-10.33 25.65 -10.66 27.3 -11 29 C-11.66 29 -12.32 29 -13 29 C-11.81693683 24.95786751 -10.2274432 21.59833414 -8.07421875 17.98828125 C-6.40643752 14.90136981 -5.21183589 11.64773719 -3.94921875 8.37890625 C-2.79386391 5.48338733 -1.45108932 2.7570697 0 0 Z " fill="#676C63" transform="translate(142,179)"/>
<path d="M0 0 C1 2 1 2 0.45849609 3.72412109 C-0.55610472 5.9477658 -1.57913944 8.16584892 -2.625 10.375 C-2.96917969 11.14328125 -3.31335938 11.9115625 -3.66796875 12.703125 C-5.79647674 17.24289481 -7.69081642 20.17257078 -12 23 C-12.66 22.67 -13.32 22.34 -14 22 C-13.01 20.515 -13.01 20.515 -12 19 C-11.01 19 -10.02 19 -9 19 C-8.9175 18.154375 -8.835 17.30875 -8.75 16.4375 C-8.10027675 13.45960179 -7.50825218 11.90514769 -6 9.375 C-3.95232244 6.29408422 -3.95232244 6.29408422 -3.4375 3.6875 C-3 2 -3 2 0 0 Z " fill="#4F534F" transform="translate(192,330)"/>
<path d="M0 0 C2.87136564 1.91424376 4.25447025 3.09078375 6 6 C6.1875 8.75 6.1875 8.75 6 11 C6.66 11 7.32 11 8 11 C8.33 12.98 8.66 14.96 9 17 C9.66 17 10.32 17 11 17 C12.625 19.75 12.625 19.75 14 23 C13.0859375 25.203125 13.0859375 25.203125 12 27 C9.99370826 22.87803094 7.99603779 18.75194299 6 14.625 C5.42765625 13.449375 4.8553125 12.27375 4.265625 11.0625 C3.72421875 9.94101562 3.1828125 8.81953125 2.625 7.6640625 C2.12226563 6.62717285 1.61953125 5.5902832 1.1015625 4.52197266 C0 2 0 2 0 0 Z " fill="#686F68" transform="translate(450,325)"/>
<path d="M0 0 C2.25881833 2.25881833 3.22281265 4.27740059 4.6015625 7.15625 C5.09140625 8.17847656 5.58125 9.20070313 6.0859375 10.25390625 C6.84777344 11.86072266 6.84777344 11.86072266 7.625 13.5 C8.140625 14.57121094 8.65625 15.64242188 9.1875 16.74609375 C13 24.74427497 13 24.74427497 13 27 C12.01 27 11.02 27 10 27 C9.66226562 26.18015625 9.32453125 25.3603125 8.9765625 24.515625 C8.53054688 23.43796875 8.08453125 22.3603125 7.625 21.25 C6.96371094 19.64898437 6.96371094 19.64898437 6.2890625 18.015625 C5.09211953 15.10141841 5.09211953 15.10141841 3.8359375 12.796875 C3 11 3 11 3 8 C2.34 8 1.68 8 1 8 C0.67 5.36 0.34 2.72 0 0 Z " fill="#5A5F5A" transform="translate(464,297)"/>
<path d="M0 0 C2.94936334 3.93248446 5.06289164 7.75859437 7.25 12.125 C7.62640625 12.85332031 8.0028125 13.58164062 8.390625 14.33203125 C9.32491431 16.19030521 10.17006746 18.09283178 11 20 C10.67 20.66 10.34 21.32 10 22 C6.71534104 19.20803989 4.98678042 15.76803183 3 12 C3 11.34 3 10.68 3 10 C2.34 10 1.68 10 1 10 C0.67 6.7 0.34 3.4 0 0 Z " fill="#5B5F5A" transform="translate(335,335)"/>
<path d="M0 0 C0 0.66 0 1.32 0 2 C-2.00465221 3.6466786 -4.11963987 5.08308324 -6.25 6.5625 C-7.11625 7.2740625 -7.11625 7.2740625 -8 8 C-8 8.66 -8 9.32 -8 10 C-11.3 9.67 -14.6 9.34 -18 9 C-14.87229723 5.87229723 -12.43289185 4.62047061 -8.4375 2.8125 C-7.28121094 2.28269531 -6.12492188 1.75289063 -4.93359375 1.20703125 C-2 0 -2 0 0 0 Z " fill="#494E49" transform="translate(176,373)"/>
<path d="M0 0 C0.99 0 1.98 0 3 0 C1.55676531 4.73789165 -0.37226733 8.98858151 -2.625 13.375 C-2.94984375 14.01566406 -3.2746875 14.65632813 -3.609375 15.31640625 C-4.40257407 16.87947501 -5.20077031 18.44000622 -6 20 C-6.33 20 -6.66 20 -7 20 C-7.21290142 15.52907017 -6.79146225 12.12036317 -5 8 C-3.68671343 6.64691687 -2.35500919 5.31129922 -1 4 C-0.2127322 1.8618034 -0.2127322 1.8618034 0 0 Z " fill="#192119" transform="translate(137,242)"/>
<path d="M0 0 C3.82269668 3.95922156 5.33505033 8.17585056 7.0703125 13.28125 C7.96369772 15.89383871 8.95402748 18.44523527 10 21 C8.203125 20.91796875 8.203125 20.91796875 6 20 C4.69599575 17.74191924 3.70807129 15.71012228 2.75 13.3125 C2.481875 12.69955078 2.21375 12.08660156 1.9375 11.45507812 C0.291842 7.4962631 -0.28852386 4.2688416 0 0 Z " fill="#59605A" transform="translate(414,193)"/>
<path d="M0 0 C0.99 0.33 1.98 0.66 3 1 C3 2.32 3 3.64 3 5 C3.99 5 4.98 5 6 5 C6.28875 6.03125 6.5775 7.0625 6.875 8.125 C7.54716674 10.50639075 8.28503311 12.79175865 9.125 15.125 C9.97928024 17.9319208 10.17121566 20.08933374 10 23 C9.01 23.33 8.02 23.66 7 24 C6.91363281 23.24976563 6.82726562 22.49953125 6.73828125 21.7265625 C5.82542676 15.07696192 4.30648815 9.82488346 1.0234375 3.9609375 C0 2 0 2 0 0 Z " fill="#545F54" transform="translate(223,158)"/>
<path d="M0 0 C6.08723655 -0.02467081 12.17444417 -0.04284604 18.26171875 -0.05493164 C20.33366401 -0.05996852 22.4056057 -0.06679825 24.47753906 -0.07543945 C27.45118082 -0.08753321 30.42477569 -0.09323467 33.3984375 -0.09765625 C34.32868744 -0.10281754 35.25893738 -0.10797882 36.21737671 -0.11329651 C37.07811798 -0.11337204 37.93885925 -0.11344757 38.82568359 -0.11352539 C39.58513275 -0.115746 40.34458191 -0.11796661 41.12704468 -0.12025452 C43 0 43 0 45 1 C45 1.66 45 2.32 45 3 C43.69554932 2.84152588 42.39109863 2.68305176 41.04711914 2.51977539 C36.44206508 2.00945174 31.87588505 1.78801331 27.24609375 1.68359375 C26.45977066 1.66281265 25.67344757 1.64203156 24.86329651 1.62062073 C22.38810693 1.55601412 19.9128251 1.49666054 17.4375 1.4375 C15.74413165 1.39422989 14.05077213 1.35061313 12.35742188 1.30664062 C8.23837218 1.20042609 4.11923113 1.09891753 0 1 C0 0.67 0 0.34 0 0 Z " fill="#767C75" transform="translate(262,57)"/>
<path d="M0 0 C0.66 0 1.32 0 2 0 C2 0.66 2 1.32 2 2 C2.66 2 3.32 2 4 2 C5.40091134 4.73753611 6.76592679 7.49148507 8.125 10.25 C8.72248047 11.41595703 8.72248047 11.41595703 9.33203125 12.60546875 C9.69941406 13.35957031 10.06679688 14.11367187 10.4453125 14.890625 C10.79094238 15.58188477 11.13657227 16.27314453 11.49267578 16.98535156 C12 19 12 19 11.09716797 21.25683594 C10.73510254 21.83208008 10.37303711 22.40732422 10 23 C9.61328125 22.07058594 9.2265625 21.14117187 8.828125 20.18359375 C5.57864625 12.29659469 5.57864625 12.29659469 1.625 4.75 C0 2 0 2 0 0 Z " fill="#545B54" transform="translate(400,221)"/>
<path d="M0 0 C0.66 0 1.32 0 2 0 C1.38760538 4.00243627 0.10833918 7.10013906 -1.75 10.6875 C-2.28367188 11.72777344 -2.81734375 12.76804688 -3.3671875 13.83984375 C-3.90601563 14.88269531 -4.44484375 15.92554688 -5 17 C-5.96132073 18.91517006 -6.91994255 20.83169889 -7.875 22.75 C-8.58333333 24.16666667 -9.29166667 25.58333333 -10 27 C-11 25 -11 25 -10.0625 21.875 C-9.711875 20.92625 -9.36125 19.9775 -9 19 C-8.34 19 -7.68 19 -7 19 C-7.33 18.01 -7.66 17.02 -8 16 C-7.07421875 13.3359375 -7.07421875 13.3359375 -5.6875 10.375 C-5.23761719 9.39273438 -4.78773438 8.41046875 -4.32421875 7.3984375 C-3 5 -3 5 -1 4 C-0.34786708 1.97536745 -0.34786708 1.97536745 0 0 Z " fill="#636863" transform="translate(172,171)"/>
<path d="M0 0 C0.969375 0.845625 1.93875 1.69125 2.9375 2.5625 C4.28876307 3.71175607 5.64319286 4.85729454 7 6 C7.73347656 6.62261719 8.46695312 7.24523437 9.22265625 7.88671875 C13.73121461 11.57553923 17.25192064 13.89930395 23 15 C23 15.33 23 15.66 23 16 C16.92671312 16.50610724 13.22771463 15.04157942 8 12 C8 11.01 8 10.02 8 9 C7.01 9 6.02 9 5 9 C2.33182899 6.88115832 1.15363095 5.56331349 0.25 2.25 C0.1675 1.5075 0.085 0.765 0 0 Z " fill="#585E59" transform="translate(354,372)"/>
<path d="M0 0 C2.9882675 2.58323124 4.49429547 5.55535237 6.25 9.0625 C7.06210937 10.65771484 7.06210937 10.65771484 7.890625 12.28515625 C8.25671875 13.18105469 8.6228125 14.07695312 9 15 C8.67 15.66 8.34 16.32 8 17 C6.62437146 15.71034824 5.29233607 14.37310707 4 13 C4 12.34 4 11.68 4 11 C3.01 11 2.02 11 1 11 C-0.20272819 8.59454362 -0.10071472 7.05003047 -0.0625 4.375 C-0.05347656 3.55773437 -0.04445313 2.74046875 -0.03515625 1.8984375 C-0.02355469 1.27195312 -0.01195312 0.64546875 0 0 Z " fill="#4D534C" transform="translate(452,273)"/>
<path d="M0 0 C1.61031868 3.22063736 0.06849117 5.68205372 -1 9 C-2.55662403 13.6698721 -4.98402394 18.10436426 -8 22 C-8.66 22 -9.32 22 -10 22 C-8.4719611 16.90117545 -6.28963144 12.34334341 -3.875 7.625 C-3.50246094 6.88894531 -3.12992188 6.15289062 -2.74609375 5.39453125 C-1.8343878 3.59449642 -0.91770068 1.79698598 0 0 Z " fill="#5F665F" transform="translate(214,229)"/>
<path d="M0 0 C3.21274829 3.80242994 5.14993856 8.15486922 7.25 12.625 C7.62640625 13.40101563 8.0028125 14.17703125 8.390625 14.9765625 C8.74125 15.7190625 9.091875 16.4615625 9.453125 17.2265625 C9.77442383 17.90283691 10.09572266 18.57911133 10.42675781 19.27587891 C11 21 11 21 10 23 C7.2027092 20.93243723 6.97307727 19.85559629 6.3125 16.3125 C6.209375 15.219375 6.10625 14.12625 6 13 C5.01 12.67 4.02 12.34 3 12 C2.05078125 10.29296875 2.05078125 10.29296875 1.3125 8.1875 C1.06113281 7.50042969 0.80976563 6.81335938 0.55078125 6.10546875 C0 4 0 4 0 0 Z " fill="#565B55" transform="translate(484,339)"/>
<path d="M0 0 C0.33 0 0.66 0 1 0 C0.67 3.96 0.34 7.92 0 12 C-1.65 12.33 -3.3 12.66 -5 13 C-5.10957031 13.63808594 -5.21914062 14.27617187 -5.33203125 14.93359375 C-5.49058594 15.75988281 -5.64914063 16.58617187 -5.8125 17.4375 C-5.96332031 18.26121094 -6.11414063 19.08492188 -6.26953125 19.93359375 C-6.51058594 20.61550781 -6.75164062 21.29742187 -7 22 C-7.99 22.33 -8.98 22.66 -10 23 C-7.60292686 14.82175048 -3.91141228 7.53348722 0 0 Z " fill="#474D47" transform="translate(188,282)"/>
<path d="M0 0 C0.28915283 0.58120605 0.57830566 1.16241211 0.8762207 1.76123047 C1.89459212 3.79000864 2.93321423 5.8063419 3.98046875 7.8203125 C4.71635848 9.25509929 5.45202952 10.68999826 6.1875 12.125 C6.56841797 12.85332031 6.94933594 13.58164063 7.34179688 14.33203125 C8.28875759 16.19158025 9.15150594 18.09350717 10 20 C9.67 20.66 9.34 21.32 9 22 C8.01 21.01 7.02 20.02 6 19 C6.33 18.34 6.66 17.68 7 17 C6.34 17 5.68 17 5 17 C4.67 16.01 4.34 15.02 4 14 C3.49855469 13.56042969 2.99710938 13.12085938 2.48046875 12.66796875 C0.38874915 10.31133479 0.49503204 8.41554462 0.3125 5.3125 C0.24675781 4.31863281 0.18101562 3.32476562 0.11328125 2.30078125 C0.07589844 1.54152344 0.03851563 0.78226563 0 0 Z " fill="#444C44" transform="translate(240,136)"/>
<path d="M0 0 C0.66 0 1.32 0 2 0 C2.33 2.31 2.66 4.62 3 7 C0.34771188 8.07525194 -2.28368454 9.09456151 -5 10 C-5 10.66 -5 11.32 -5 12 C-5.66 12 -6.32 12 -7 12 C-5.85569823 8.12697862 -4.76679902 4.99736561 -2 2 C-1.34 2 -0.68 2 0 2 C0 1.34 0 0.68 0 0 Z " fill="#1D251D" transform="translate(181,302)"/>
<path d="M0 0 C-0.60266785 4.50727647 -2.36599794 7.8587963 -4.5625 11.8125 C-5.0565332 12.7087207 -5.0565332 12.7087207 -5.56054688 13.62304688 C-6.36773267 15.08533998 -7.18304917 16.5431399 -8 18 C-9.21881834 14.01738233 -8.46199417 11.89865112 -7 8 C-6.87625 7.29875 -6.7525 6.5975 -6.625 5.875 C-5.57637007 2.7291102 -3.44582699 0 0 0 Z " fill="#555B55" transform="translate(114,296)"/>
<path d="M0 0 C0.99 0 1.98 0 3 0 C1.4719611 5.09882455 -0.71036856 9.65665659 -3.125 14.375 C-3.49753906 15.11105469 -3.87007813 15.84710938 -4.25390625 16.60546875 C-5.1656122 18.40550358 -6.08229932 20.20301402 -7 22 C-7.66 21.01 -8.32 20.02 -9 19 C-6.36 13.72 -3.72 8.44 -1 3 C-0.34 3 0.32 3 1 3 C0.67 2.01 0.34 1.02 0 0 Z " fill="#4E534E" transform="translate(122,274)"/>
<path d="M0 0 C2.96430761 3.55716913 4.7721925 7.45050932 6.6875 11.625 C7.00783203 12.305625 7.32816406 12.98625 7.65820312 13.6875 C10 18.74058835 10 18.74058835 10 21 C9.01 21 8.02 21 7 21 C6.566875 19.96875 6.13375 18.9375 5.6875 17.875 C4.68381446 15.50135504 3.62771542 13.32702403 2.375 11.0625 C0.67368124 7.27319913 0.35572638 4.12642601 0 0 Z " fill="#5E655E" transform="translate(362,85)"/>
<path d="M0 0 C5.72514527 0.53414627 10.23868689 2.16048662 15.4375 4.5625 C16.16904297 4.89185547 16.90058594 5.22121094 17.65429688 5.56054688 C19.43979399 6.36577106 21.22042155 7.18177846 23 8 C23 8.33 23 8.66 23 9 C17.54520815 8.43179252 13.08940744 7.05362055 8 5 C8 4.34 8 3.68 8 3 C7.05125 3.020625 6.1025 3.04125 5.125 3.0625 C2 3 2 3 0 2 C0 1.34 0 0.68 0 0 Z " fill="#474D47" transform="translate(386,276)"/>
<path d="M0 0 C0 0.99 0 1.98 0 3 C-1.44645472 4.2492109 -2.90057528 5.49191728 -4.41015625 6.6640625 C-6.23291588 8.10590518 -6.23291588 8.10590518 -8.1875 10.75 C-10 13 -10 13 -13 14 C-11.41437766 8.76744627 -6.17989699 0 0 0 Z " fill="#505850" transform="translate(243,40)"/>
<path d="M0 0 C0.66 0 1.32 0 2 0 C1.39787797 4.79844944 -0.6388883 8.45902056 -2.9375 12.625 C-3.29779297 13.29273438 -3.65808594 13.96046875 -4.02929688 14.6484375 C-5.58689688 17.5169458 -7.18838492 20.28257738 -9 23 C-8.67 20.36 -8.34 17.72 -8 15 C-7.01 14.67 -6.02 14.34 -5 14 C-4.67 11.69 -4.34 9.38 -4 7 C-3.01 6.67 -2.02 6.34 -1 6 C-1.020625 5.195625 -1.04125 4.39125 -1.0625 3.5625 C-1 1 -1 1 0 0 Z " fill="#696D69" transform="translate(197,119)"/>
<path d="M0 0 C5.84615385 5.53846154 5.84615385 5.53846154 7 9 C6.67 9.99 6.34 10.98 6 12 C6.66 12 7.32 12 8 12 C9.85776765 15.13498292 10.20140476 17.37471432 10 21 C7.22120716 17.58849741 5.26245731 13.85776908 3.3125 9.9375 C2.99216797 9.31294922 2.67183594 8.68839844 2.34179688 8.04492188 C0.90158647 5.16757188 0 3.26167037 0 0 Z " fill="#61655E" transform="translate(238,109)"/>
<path d="M0 0 C6.45306122 -0.25306122 6.45306122 -0.25306122 9.09375 0.96875 C13.43330996 2.50859386 17.7386658 2.4698452 22.3125 2.625 C23.24384766 2.66367187 24.17519531 2.70234375 25.13476562 2.7421875 C27.42298407 2.83606313 29.71120295 2.92174509 32 3 C32 3.33 32 3.66 32 4 C28.52090629 4.05883728 25.04194326 4.09387399 21.5625 4.125 C20.58861328 4.14175781 19.61472656 4.15851563 18.61132812 4.17578125 C12.42302626 4.21717457 6.95831351 3.73354798 1 2 C0.67 1.34 0.34 0.68 0 0 Z " fill="#434842" transform="translate(367,410)"/>
<path d="M0 0 C0 0.66 0 1.32 0 2 C-11.33712984 8.70387244 -11.33712984 8.70387244 -18 9 C-13.63771981 4.93856672 -6.17759869 0 0 0 Z " fill="#5E635E" transform="translate(194,364)"/>
<path d="M0 0 C3.29718286 1.04877712 4.01596357 2.02862681 5.73828125 5.1171875 C6.27692476 6.36387591 6.80128285 7.61681645 7.3125 8.875 C7.58900391 9.50019531 7.86550781 10.12539063 8.15039062 10.76953125 C9.64250779 14.32505478 10.15844565 16.34663245 9 20 C7.49352402 17.04492094 5.99593635 14.08542659 4.5 11.125 C4.07074219 10.28324219 3.64148438 9.44148438 3.19921875 8.57421875 C2.79316406 7.76855469 2.38710938 6.96289062 1.96875 6.1328125 C1.59169922 5.38918457 1.21464844 4.64555664 0.82617188 3.87939453 C0 2 0 2 0 0 Z " fill="#5E635E" transform="translate(440,304)"/>
<path d="M0 0 C0.66 0.33 1.32 0.66 2 1 C0.8040668 5.69173792 -0.45404733 8.75674555 -3 13 C3.27 13 9.54 13 16 13 C16 13.33 16 13.66 16 14 C9.07 14 2.14 14 -5 14 C-4.67 12.02 -4.34 10.04 -4 8 C-3.01 7.67 -2.02 7.34 -1 7 C-0.67 4.69 -0.34 2.38 0 0 Z " fill="#2A312A" transform="translate(223,262)"/>
<path d="M0 0 C0.66 0 1.32 0 2 0 C2 0.99 2 1.98 2 3 C2.66 3.33 3.32 3.66 4 4 C4.103125 4.804375 4.20625 5.60875 4.3125 6.4375 C4.539375 7.283125 4.76625 8.12875 5 9 C7.47636012 10.37466625 7.47636012 10.37466625 10 11 C9.979375 12.0725 9.95875 13.145 9.9375 14.25 C9.9857984 17.14790424 10.13155885 19.28612141 11 22 C8.55367484 19.80315843 7.3117609 17.84182364 6.0625 14.8125 C4.72937873 11.66242194 3.31960888 8.60188398 1.75 5.5625 C0 2 0 2 0 0 Z " fill="#626A62" transform="translate(275,187)"/>
<path d="M0 0 C0.33 0 0.66 0 1 0 C1.30031949 9.00958466 1.30031949 9.00958466 -1 12 C-4.16235693 13.97647308 -6.55655892 14.22219582 -10.25 14.125 C-11.14203125 14.10695313 -12.0340625 14.08890625 -12.953125 14.0703125 C-13.96632813 14.03550781 -13.96632813 14.03550781 -15 14 C-15 13.34 -15 12.68 -15 12 C-11.7 12 -8.4 12 -5 12 C-5 11.34 -5 10.68 -5 10 C-4.360625 9.608125 -3.72125 9.21625 -3.0625 8.8125 C-0.11050849 6.21832565 -0.28669109 3.7986569 0 0 Z " fill="#141D14" transform="translate(476,378)"/>
<path d="M0 0 C1.670625 0.061875 1.670625 0.061875 3.375 0.125 C3.045 0.785 2.715 1.445 2.375 2.125 C1.66730469 2.25648438 0.95960938 2.38796875 0.23046875 2.5234375 C-4.57630301 3.53608162 -8.53221525 6.30286061 -12.76171875 8.7265625 C-13.70660156 9.18804687 -14.65148437 9.64953125 -15.625 10.125 C-16.285 9.795 -16.945 9.465 -17.625 9.125 C-16.635 8.795 -15.645 8.465 -14.625 8.125 C-14.295 6.475 -13.965 4.825 -13.625 3.125 C-12.34625 3.00125 -11.0675 2.8775 -9.75 2.75 C-5.58490547 2.34692634 -4.19376188 0.14461248 0 0 Z " fill="#5B615A" transform="translate(305.625,333.875)"/>
<path d="M0 0 C4.20827473 -0.05828635 8.41644489 -0.093693 12.625 -0.125 C14.40970703 -0.15013672 14.40970703 -0.15013672 16.23046875 -0.17578125 C17.38417969 -0.18222656 18.53789062 -0.18867188 19.7265625 -0.1953125 C21.31331787 -0.21102295 21.31331787 -0.21102295 22.93212891 -0.22705078 C26.29001549 0.02146382 28.91819943 0.64364711 32 2 C32.495 3.485 32.495 3.485 33 5 C30.03 4.34 27.06 3.68 24 3 C24 2.34 24 1.68 24 1 C16.08 1 8.16 1 0 1 C0 0.67 0 0.34 0 0 Z " fill="#464A45" transform="translate(248,298)"/>
<path d="M0 0 C2.2808887 3.42133306 4.22938211 6.9504047 6.1875 10.5625 C6.56841797 11.24763672 6.94933594 11.93277344 7.34179688 12.63867188 C8.2905685 14.39329671 9.15257261 16.19424732 10 18 C9.67 18.66 9.34 19.32 9 20 C8.01 19.34 7.02 18.68 6 18 C6 16.68 6 15.36 6 14 C5.01 13.67 4.02 13.34 3 13 C0.58743614 8.44293494 -0.38284419 5.23220388 0 0 Z " fill="#575E57" transform="translate(230,116)"/>
<path d="M0 0 C0.33 0 0.66 0 1 0 C1 7.92 1 15.84 1 24 C-3.46134429 17.30798357 -1.89499996 9.85360905 -0.47265625 2.30859375 C-0.31667969 1.54675781 -0.16070312 0.78492188 0 0 Z " fill="#4E534F" transform="translate(226,61)"/>
<path d="M0 0 C3 1 3 1 4 3 C5.32 3 6.64 3 8 3 C7.49800802 6.72908331 6.95792977 10.36147686 6 14 C4.99515796 12.04414675 3.99626195 10.08523763 3 8.125 C2.1646875 6.48917969 2.1646875 6.48917969 1.3125 4.8203125 C0 2 0 2 0 0 Z " fill="#454C44" transform="translate(231,95)"/>
<path d="M0 0 C0.13277344 0.53496094 0.26554688 1.06992188 0.40234375 1.62109375 C0.84572468 3.38592372 1.29756531 5.14863292 1.75390625 6.91015625 C2.02074219 7.95042969 2.28757813 8.99070312 2.5625 10.0625 C2.96662109 11.62677734 2.96662109 11.62677734 3.37890625 13.22265625 C4 16 4 16 4 19 C0.911493 16.2203437 -0.87675071 14.02497664 -2 10 C-2.07646165 7.6679198 -2.09143299 5.33154122 -2 3 C-1.34 3 -0.68 3 0 3 C0 2.01 0 1.02 0 0 Z " fill="#525851" transform="translate(249,68)"/>
<path d="M0 0 C-2.37191584 1.29761299 -4.74724614 2.58816317 -7.125 3.875 C-8.12273437 4.42220703 -8.12273437 4.42220703 -9.140625 4.98046875 C-13.01538929 7.06980244 -16.75687369 8.74424611 -21 10 C-21.33 9.34 -21.66 8.68 -22 8 C-18.62214778 5.78026854 -15.93534461 4.7652059 -12 4 C-11.67 3.34 -11.34 2.68 -11 2 C-9.2578125 1.11328125 -9.2578125 1.11328125 -7.125 0.3125 C-6.42632812 0.04050781 -5.72765625 -0.23148437 -5.0078125 -0.51171875 C-3 -1 -3 -1 0 0 Z " fill="#7A807A" transform="translate(261,358)"/>
<path d="M0 0 C1 2 1 2 0.29296875 4.42578125 C-0.07183594 5.37839844 -0.43664062 6.33101562 -0.8125 7.3125 C-1.16957031 8.25738281 -1.52664062 9.20226562 -1.89453125 10.17578125 C-2.9173889 12.78894762 -3.95207813 15.39679136 -5 18 C-5.66 18 -6.32 18 -7 18 C-7 18.66 -7 19.32 -7 20 C-7.66 20 -8.32 20 -9 20 C-6.83644361 12.96844174 -3.99581427 6.19351212 0 0 Z " fill="#686D66" transform="translate(224,208)"/>
<path d="M0 0 C1 3 1 3 0.28735352 4.90112305 C-0.28607788 5.94586792 -0.28607788 5.94586792 -0.87109375 7.01171875 C-1.28037109 7.76904297 -1.68964844 8.52636719 -2.11132812 9.30664062 C-2.54896484 10.09232422 -2.98660156 10.87800781 -3.4375 11.6875 C-4.0881543 12.88342773 -4.0881543 12.88342773 -4.75195312 14.10351562 C-5.82574763 16.07410554 -6.90864182 18.03909927 -8 20 C-9.125 16.25 -9.125 16.25 -8 14 C-7.34 14 -6.68 14 -6 14 C-6 12.68 -6 11.36 -6 10 C-5.34 10 -4.68 10 -4 10 C-3.67 7.36 -3.34 4.72 -3 2 C-2.01 2 -1.02 2 0 2 C0 1.34 0 0.68 0 0 Z " fill="#656A65" transform="translate(187,142)"/>
<path d="M0 0 C1.5 1.375 1.5 1.375 3 3 C3 3.66 3 4.32 3 5 C4.32 5.33 5.64 5.66 7 6 C7.38909985 7.45463481 7.76088029 8.91391207 8.125 10.375 C8.33382813 11.18710938 8.54265625 11.99921875 8.7578125 12.8359375 C8.83773438 13.55007812 8.91765625 14.26421875 9 15 C8.34 15.66 7.68 16.32 7 17 C1.62870159 5.47835991 1.62870159 5.47835991 0 0 Z " fill="#555A55" transform="translate(392,204)"/>
<path d="M0 0 C3 1 3 1 4.4375 3.5 C5.74552024 6.15872085 5.74552024 6.15872085 8.1875 6.8125 C8.785625 6.874375 9.38375 6.93625 10 7 C9.67 7.99 9.34 8.98 9 10 C8.34 10 7.68 10 7 10 C6.67 10.99 6.34 11.98 6 13 C4.43926745 10.65890118 3.13626133 8.43666597 1.875 5.9375 C1.34519531 4.89916016 1.34519531 4.89916016 0.8046875 3.83984375 C0 2 0 2 0 0 Z " fill="#383E38" transform="translate(382,183)"/>
<path d="M0 0 C0.33 0.66 0.66 1.32 1 2 C4.465 1.505 4.465 1.505 8 1 C5.57564804 3.42435196 3.1161252 4.62922581 0.0625 6.1875 C-0.99839844 6.73792969 -2.05929688 7.28835938 -3.15234375 7.85546875 C-6 9 -6 9 -9 8 C-5.375 5 -5.375 5 -2 5 C-1.34 3.35 -0.68 1.7 0 0 Z " fill="#626962" transform="translate(196,385)"/>
<path d="M0 0 C0.66 0.33 1.32 0.66 2 1 C2 5 2 5 1 8 C0.01 8 -0.98 8 -2 8 C-2.12375 8.7425 -2.2475 9.485 -2.375 10.25 C-2.95486701 12.80141485 -3.73708739 14.7267573 -5 17 C-5.66 17 -6.32 17 -7 17 C-5.24009216 11.08030998 -2.60305395 5.58365008 0 0 Z " fill="#616661" transform="translate(105,256)"/>
<path d="M0 0 C2.52940738 3.13164723 4.44920018 6.27808042 6 10 C5.6875 12.375 5.6875 12.375 5 14 C2 10.25 2 10.25 2 8 C1.01 7.67 0.02 7.34 -1 7 C-0.67 4.69 -0.34 2.38 0 0 Z " fill="#4F554E" transform="translate(434,314)"/>
<path d="M0 0 C5.01243959 3.84380901 8.1686587 7.3373174 11 13 C9.125 12.6875 9.125 12.6875 7 12 C5 9 5 9 5 6 C3.68 5.67 2.36 5.34 1 5 C0.67 3.35 0.34 1.7 0 0 Z " fill="#59615A" transform="translate(418,292)"/>
<path d="M0 0 C3.21365891 1.10815825 3.9914224 1.98529554 5.75 5 C7 8 7 8 7 10 C7.66 10.33 8.32 10.66 9 11 C8.67 12.65 8.34 14.3 8 16 C4.05177666 11.45954316 1.88335828 5.65007483 0 0 Z " fill="#555B55" transform="translate(332,80)"/>
<path d="M0 0 C0.33 0.66 0.66 1.32 1 2 C1.99 2 2.98 2 4 2 C4.19335938 2.61488281 4.38671875 3.22976563 4.5859375 3.86328125 C4.84632813 4.67152344 5.10671875 5.47976563 5.375 6.3125 C5.63023437 7.11300781 5.88546875 7.91351563 6.1484375 8.73828125 C6.98831811 11.22724528 6.98831811 11.22724528 9 14 C9 15.32 9 16.64 9 18 C9.66 18.33 10.32 18.66 11 19 C10.34 19.66 9.68 20.32 9 21 C7.68302963 18.25206182 6.37129631 15.50182815 5.0625 12.75 C4.68931641 11.97269531 4.31613281 11.19539063 3.93164062 10.39453125 C3.57392578 9.64042969 3.21621094 8.88632812 2.84765625 8.109375 C2.3527771 7.07248535 2.3527771 7.07248535 1.84790039 6.01464844 C1.01082472 4.02572001 0.46416026 2.10419318 0 0 Z " fill="#616662" transform="translate(316,351)"/>
<path d="M0 0 C0 1.32 0 2.64 0 4 C-2.125 5.8125 -2.125 5.8125 -5 7 C-8.3125 6.6875 -8.3125 6.6875 -11 6 C-3.8 0 -3.8 0 0 0 Z " fill="#474F47" transform="translate(269,326)"/>
<path d="M0 0 C2.87950786 2.6008458 4.21737013 4.21728897 5 8 C5.66 8.33 6.32 8.66 7 9 C7.59355614 11.64860427 7.74209269 14.29197322 8 17 C3.89063842 12.27423418 1.35268943 6.07329947 0 0 Z " fill="#535851" transform="translate(291,219)"/>
<path d="M0 0 C0.33 0.66 0.66 1.32 1 2 C0.0727001 3.70818403 -0.94712186 5.36622358 -2 7 C-2.7359638 8.26690911 -3.46502622 9.53784984 -4.1875 10.8125 C-4.785625 11.864375 -5.38375 12.91625 -6 14 C-6.66 13.67 -7.32 13.34 -8 13 C-6.63589551 7.40717158 -3.84616474 4.08806189 0 0 Z " fill="#525852" transform="translate(184,98)"/>
<path d="M0 0 C7 8.20689655 7 8.20689655 7 13 C6.01 13 5.02 13 4 13 C0.69613575 8.93370553 0.42780407 5.04808808 0 0 Z " fill="#545B54" transform="translate(400,165)"/>
<path d="M0 0 C0.66 0 1.32 0 2 0 C0.36041242 5.23272633 -1.38952035 10.15196636 -4 15 C-4.33 15 -4.66 15 -5 15 C-5.34833144 10.12335991 -4.41685712 7.22949995 -2 3 C-1.34 3 -0.68 3 0 3 C0 2.01 0 1.02 0 0 Z " fill="#60645F" transform="translate(158,200)"/>
<path d="M0 0 C1.36420006 4.09260018 -0.2335485 6.47012659 -1.9375 10.1875 C-2.22818359 10.84169922 -2.51886719 11.49589844 -2.81835938 12.16992188 C-3.53695343 13.78381344 -4.2673588 15.39243655 -5 17 C-5.66 17 -6.32 17 -7 17 C-5.1668733 11.00067626 -2.92678249 5.55079437 0 0 Z " fill="#696E69" transform="translate(163,136)"/>
<path d="M0 0 C3 2 3 2 3.6875 4.125 C3.8421875 5.053125 3.8421875 5.053125 4 6 C4.66 6 5.32 6 6 6 C6.66 9.3 7.32 12.6 8 16 C5.68260704 12.91014273 4.00626667 10.28287889 2.3125 6.875 C1.65701172 5.57175781 1.65701172 5.57175781 0.98828125 4.2421875 C0 2 0 2 0 0 Z " fill="#575D56" transform="translate(432,287)"/>
<path d="M0 0 C1.9668026 1.9668026 2.9371637 3.5444659 4.1875 6 C4.55230469 6.70125 4.91710937 7.4025 5.29296875 8.125 C5.52628906 8.74375 5.75960938 9.3625 6 10 C5.67 10.66 5.34 11.32 5 12 C0.125 10.25 0.125 10.25 -1 8 C-0.34 8 0.32 8 1 8 C0.67 5.36 0.34 2.72 0 0 Z " fill="#434A43" transform="translate(314,212)"/>
<path d="M0 0 C2.33285378 2.13900633 3.7868759 4.16655353 5.1875 7 C5.53167969 7.680625 5.87585938 8.36125 6.23046875 9.0625 C7 11 7 11 7 14 C6.01 13.67 5.02 13.34 4 13 C2.83203125 10.56640625 2.83203125 10.56640625 1.8125 7.5625 C1.46832031 6.57378906 1.12414062 5.58507812 0.76953125 4.56640625 C0 2 0 2 0 0 Z " fill="#686E68" transform="translate(307,198)"/>
<path d="M0 0 C1.76227952 2.64341928 3.19871008 5.23077235 4.625 8.0625 C5.07101562 8.94035156 5.51703125 9.81820312 5.9765625 10.72265625 C7 13 7 13 7 15 C6.34 15 5.68 15 5 15 C4.67 14.01 4.34 13.02 4 12 C3.525625 11.525625 3.05125 11.05125 2.5625 10.5625 C0.76490062 8.76490062 -0.15251337 7.40121212 -1 5 C-0.625 2.25 -0.625 2.25 0 0 Z " fill="#525853" transform="translate(407,178)"/>
<path d="M0 0 C-1.28913487 0.67154933 -2.58140204 1.33708859 -3.875 2 C-4.59429687 2.37125 -5.31359375 2.7425 -6.0546875 3.125 C-8 4 -8 4 -10 4 C-10.33 5.65 -10.66 7.3 -11 9 C-11.66 8.67 -12.32 8.34 -13 8 C-13 7.34 -13 6.68 -13 6 C-12.34 6 -11.68 6 -11 6 C-11.33 4.35 -11.66 2.7 -12 1 C-7.96342389 -1.01828805 -4.27102221 -1.23878133 0 0 Z " fill="#636A63" transform="translate(262,59)"/>
<path d="M0 0 C1.98 0 3.96 0 6 0 C4.02 0.99 4.02 0.99 2 2 C2 2.66 2 3.32 2 4 C2.66 4 3.32 4 4 4 C5.6875 6.375 5.6875 6.375 7 9 C6.67 9.66 6.34 10.32 6 11 C3 9 3 9 1 6 C0.67 6 0.34 6 0 6 C0 4.02 0 2.04 0 0 Z " fill="#707670" transform="translate(316,299)"/>
<path d="M0 0 C-0.65071928 2.92823675 -1.34934854 4.58437978 -3.9140625 6.22265625 C-5.92130928 7.21209415 -7.9342057 8.14005307 -10 9 C-9.34 7.68 -8.68 6.36 -8 5 C-7.34 5 -6.68 5 -6 5 C-6 4.34 -6 3.68 -6 3 C-2.53846154 0 -2.53846154 0 0 0 Z " fill="#484F48" transform="translate(494,401)"/>
<path d="M0 0 C0.33 0 0.66 0 1 0 C1.36471355 2.22746539 1.71635972 4.45707292 2.0625 6.6875 C2.25972656 7.92886719 2.45695312 9.17023438 2.66015625 10.44921875 C2.96752656 13.66070857 2.84273231 15.91783919 2 19 C-0.44989101 15.25764681 -0.23086143 11.55774581 -0.125 7.25 C-0.11597656 6.55261719 -0.10695312 5.85523438 -0.09765625 5.13671875 C-0.07419888 3.42433042 -0.03833104 1.71211996 0 0 Z " fill="#7A7F79" transform="translate(52,369)"/>
<path d="M0 0 C-1.95585325 1.00484204 -3.91476237 2.00373805 -5.875 3 C-6.96554688 3.556875 -8.05609375 4.11375 -9.1796875 4.6875 C-12 6 -12 6 -14 6 C-13.34 4.68 -12.68 3.36 -12 2 C-10.35 2 -8.7 2 -7 2 C-7 1.34 -7 0.68 -7 0 C-3.98968256 -0.93423645 -3.13349732 -1.04449911 0 0 Z " fill="#5E645D" transform="translate(218,380)"/>
<path d="M0 0 C1.875 0.625 1.875 0.625 4 2 C5.73961634 5.81058817 6.19298271 8.03483443 5 12 C4.16180842 10.37750059 3.3295884 8.75191503 2.5 7.125 C2.0359375 6.22007812 1.571875 5.31515625 1.09375 4.3828125 C0 2 0 2 0 0 Z " fill="#596059" transform="translate(432,366)"/>
<path d="M0 0 C0.99 0 1.98 0 3 0 C2.67515625 0.8353125 2.67515625 0.8353125 2.34375 1.6875 C0.38647405 7.05188593 -0.31098961 11.29852383 0 17 C-0.66 16.67 -1.32 16.34 -2 16 C-2.20674944 10.21101581 -1.59162079 5.57067277 0 0 Z " fill="#666B65" transform="translate(78,365)"/>
<path d="M0 0 C0.33 0.66 0.66 1.32 1 2 C-0.21484375 4.8203125 -0.21484375 4.8203125 -1.9375 8.125 C-2.50339844 9.22070312 -3.06929687 10.31640625 -3.65234375 11.4453125 C-4.09707031 12.28835937 -4.54179687 13.13140625 -5 14 C-6.13298556 10.60104332 -5.85659602 9.73016562 -4.75 6.4375 C-4.49734375 5.65246094 -4.2446875 4.86742187 -3.984375 4.05859375 C-3 2 -3 2 0 0 Z " fill="#808580" transform="translate(146,228)"/>
<path d="M0 0 C0.33 0 0.66 0 1 0 C1.125 5.75 1.125 5.75 0 8 C0.66 8.33 1.32 8.66 2 9 C0.02 9.66 -1.96 10.32 -4 11 C-3.52269162 9.5410574 -3.04308958 8.08286504 -2.5625 6.625 C-2.29566406 5.81289062 -2.02882812 5.00078125 -1.75390625 4.1640625 C-1 2 -1 2 0 0 Z " fill="#424C42" transform="translate(229,197)"/>
<path d="M0 0 C3.24745514 4.13312472 5 6.63932628 5 12 C4.34 12 3.68 12 3 12 C-0.42857143 4.71428571 -0.42857143 4.71428571 0 0 Z " fill="#545C54" transform="translate(495,362)"/>
<path d="M0 0 C0.66 0 1.32 0 2 0 C1.72510809 4.03174806 1.46508424 5.56894631 -1.5625 8.375 C-2.366875 8.91125 -3.17125 9.4475 -4 10 C-4.66 9.67 -5.32 9.34 -6 9 C-5.34 8.01 -4.68 7.02 -4 6 C-3.01 6 -2.02 6 -1 6 C-0.67 4.02 -0.34 2.04 0 0 Z " fill="#596059" transform="translate(184,343)"/>
<path d="M0 0 C5 6.36363636 5 6.36363636 5 11 C4.01 10.67 3.02 10.34 2 10 C2 8.68 2 7.36 2 6 C1.34 6 0.68 6 0 6 C-0.38218767 4.34385343 -0.71395102 2.67542976 -1 1 C-0.67 0.67 -0.34 0.34 0 0 Z " fill="#646A63" transform="translate(477,324)"/>
<path d="M0 0 C0.66 0.66 1.32 1.32 2 2 C1.70630173 3.34262065 1.3721042 4.67696283 1 6 C1.33 6.66 1.66 7.32 2 8 C2.039992 9.99960012 2.04346799 12.00047242 2 14 C-1.74525799 10.25474201 -1.68909949 6.01729091 -2 1 C-1.34 0.67 -0.68 0.34 0 0 Z " fill="#343C34" transform="translate(380,169)"/>
<path d="M0 0 C1.40907283 2.81814566 0.50872691 4.17277204 -0.4375 7.125 C-0.72496094 8.03507812 -1.01242188 8.94515625 -1.30859375 9.8828125 C-1.53675781 10.58148438 -1.76492187 11.28015625 -2 12 C-2.66 12 -3.32 12 -4 12 C-4.33 12.66 -4.66 13.32 -5 14 C-4.53411505 8.29290936 -3.06242216 4.84060277 0 0 Z " fill="#7F827E" transform="translate(58,355)"/>
<path d="M0 0 C2.96659857 3.55991828 5.381348 7.65222543 7 12 C6.67 12.66 6.34 13.32 6 14 C5.896875 13.360625 5.79375 12.72125 5.6875 12.0625 C5.460625 11.381875 5.23375 10.70125 5 10 C4.01 9.67 3.02 9.34 2 9 C-0.04108797 5.99208089 -0.19878036 3.57804656 0 0 Z " fill="#595E58" transform="translate(440,327)"/>
<path d="M0 0 C1.32 0.33 2.64 0.66 4 1 C4 2.32 4 3.64 4 5 C5.32 5.66 6.64 6.32 8 7 C8 8.65 8 10.3 8 12 C4.65600257 9.00193334 2.85936857 6.07290257 1 2 C0.67 1.34 0.34 0.68 0 0 Z " fill="#5D645E" transform="translate(405,314)"/>
<path d="M0 0 C2.97 0 5.94 0 9 0 C9.33 0.66 9.66 1.32 10 2 C7.36 2 4.72 2 2 2 C1.67 3.32 1.34 4.64 1 6 C0 5 0 5 -0.0625 2.4375 C-0.041875 1.633125 -0.02125 0.82875 0 0 Z " fill="#1B221B" transform="translate(314,297)"/>
<path d="M0 0 C0.33 0 0.66 0 1 0 C1.17942163 3.94727588 1.09350689 6.5980513 -1 10 C-1.99 10 -2.98 10 -4 10 C-2.99806563 6.20696275 -2.18975773 3.28463659 0 0 Z " fill="#656965" transform="translate(203,251)"/>
<path d="M0 0 C1.875 0.125 1.875 0.125 4 1 C5.76708665 4.78661425 6.1914033 7.04865524 5 11 C4.16151196 9.54462432 3.32936066 8.08559627 2.5 6.625 C1.80390625 5.40683594 1.80390625 5.40683594 1.09375 4.1640625 C0 2 0 2 0 0 Z " fill="#555B56" transform="translate(411,244)"/>
<path d="M0 0 C2.56616632 3.84924948 2.55097676 6.4349304 3 11 C2.01 11.33 1.02 11.66 0 12 C0 8.04 0 4.08 0 0 Z " fill="#484D47" transform="translate(230,170)"/>
<path d="M0 0 C0.93045933 2.55144824 1.08564091 3.74006478 0.22265625 6.359375 C-0.16019531 7.14828125 -0.54304687 7.9371875 -0.9375 8.75 C-1.50791016 9.94882813 -1.50791016 9.94882813 -2.08984375 11.171875 C-2.39019531 11.77515625 -2.69054687 12.3784375 -3 13 C-3.66 12.67 -4.32 12.34 -5 12 C-3.68938409 7.76570244 -2.05643741 3.92592596 0 0 Z " fill="#666A65" transform="translate(151,161)"/>
<path d="M0 0 C2.34191563 2.1290142 3.83554954 4.04408729 5 7 C5 8.32 5 9.64 5 11 C4.34 11 3.68 11 3 11 C3 10.01 3 9.02 3 8 C2.01 7.67 1.02 7.34 0 7 C0 4.69 0 2.38 0 0 Z " fill="#656B66" transform="translate(257,94)"/>
<path d="M0 0 C-8.42857143 3.42857143 -8.42857143 3.42857143 -13 3 C-11 0 -11 0 -9.16015625 -0.546875 C-8.46792969 -0.61390625 -7.77570313 -0.6809375 -7.0625 -0.75 C-6.37285156 -0.82734375 -5.68320313 -0.9046875 -4.97265625 -0.984375 C-3 -1 -3 -1 0 0 Z " fill="#505650" transform="translate(157,410)"/>
<path d="M0 0 C4.4571874 0.26218749 6.51522698 0.57711289 9.9375 3.5625 C10.618125 4.366875 11.29875 5.17125 12 6 C7.76570244 4.68938409 3.92592596 3.05643741 0 1 C0 0.67 0 0.34 0 0 Z " fill="#6A7069" transform="translate(351,403)"/>
<path d="M0 0 C0.763125 0.804375 1.52625 1.60875 2.3125 2.4375 C4.79430898 5.16799024 4.79430898 5.16799024 8 6 C8 6.99 8 7.98 8 9 C6.02 8.34 4.04 7.68 2 7 C2 6.01 2 5.02 2 4 C1.34 4 0.68 4 0 4 C0 2.68 0 1.36 0 0 Z " fill="#5B615B" transform="translate(78,382)"/>
<path d="M0 0 C0 0.66 0 1.32 0 2 C-0.66 2 -1.32 2 -2 2 C-2.33 2.99 -2.66 3.98 -3 5 C-5.0625 6.1875 -5.0625 6.1875 -7 7 C-7 6.01 -7 5.02 -7 4 C-7.66 3.67 -8.32 3.34 -9 3 C-2.25 0 -2.25 0 0 0 Z " fill="#4B524B" transform="translate(214,354)"/>
<path d="M0 0 C1 2 1 2 0.44140625 4.1640625 C0.15136719 4.97617187 -0.13867188 5.78828125 -0.4375 6.625 C-0.72496094 7.44226563 -1.01242188 8.25953125 -1.30859375 9.1015625 C-1.53675781 9.72804688 -1.76492187 10.35453125 -2 11 C-2.99 11 -3.98 11 -5 11 C-3.77472971 6.94718288 -2.30119506 3.55639236 0 0 Z " fill="#797E7A" transform="translate(78,313)"/>
<path d="M0 0 C1.41750563 0.11509661 2.83401169 0.24253658 4.25 0.375 C5.03890625 0.44460937 5.8278125 0.51421875 6.640625 0.5859375 C9.085877 1.01507113 10.84836903 1.78600638 13 3 C13 3.99 13 4.98 13 6 C12.34 5.731875 11.68 5.46375 11 5.1875 C7.35060933 3.74294953 3.67754567 2.37128822 0 1 C0 0.67 0 0.34 0 0 Z " fill="#5C635C" transform="translate(307,60)"/>
<path d="M0 0 C3.58459931 4.77946575 4.12621479 6.19411983 4 12 C3.67 11.34 3.34 10.68 3 10 C2.34 10 1.68 10 1 10 C0.67 6.7 0.34 3.4 0 0 Z " fill="#3B423B" transform="translate(335,335)"/>
<path d="M0 0 C0.99 0 1.98 0 3 0 C2.54917531 1.46067199 2.08906463 2.91848032 1.625 4.375 C1.36976563 5.18710937 1.11453125 5.99921875 0.8515625 6.8359375 C0 9 0 9 -2 11 C-2.33 10.01 -2.66 9.02 -3 8 C-2.34 7.01 -1.68 6.02 -1 5 C-0.61500109 3.34450469 -0.27206865 1.6777567 0 0 Z " fill="#545954" transform="translate(127,262)"/>
<path d="M0 0 C5 7.5 5 7.5 5 11 C2 10 2 10 0.25 7.1875 C-0.98589446 4.03596914 -1.28222189 3.03070628 0 0 Z " fill="#3F453F" transform="translate(334,253)"/>
<path d="M0 0 C2.64465038 3.1254959 3.84414715 6.08788267 5 10 C4.01 10 3.02 10 2 10 C-0.09350689 6.5980513 -0.17942163 3.94727588 0 0 Z " fill="#606760" transform="translate(320,224)"/>
<path d="M0 0 C2.22825644 2.22825644 2.69239369 3.65761628 3.625 6.625 C3.88539063 7.44226563 4.14578125 8.25953125 4.4140625 9.1015625 C4.60742188 9.72804688 4.80078125 10.35453125 5 11 C2 10 2 10 0.25 7.1875 C-0.98589446 4.03596914 -1.28222189 3.03070628 0 0 Z " fill="#4C554B" transform="translate(375,112)"/>
<path d="M0 0 C-2.6598561 3.44216672 -5.90288286 3.99504674 -10 5 C-10 4.34 -10 3.68 -10 3 C-6.58168085 0.4606772 -4.24223102 -0.3636198 0 0 Z " fill="#6E736F" transform="translate(168,404)"/>
<path d="M0 0 C0.88336837 2.4667645 1.1312406 3.63859372 0.22265625 6.140625 C-0.16019531 6.83671875 -0.54304688 7.5328125 -0.9375 8.25 C-1.31777344 8.95640625 -1.69804688 9.6628125 -2.08984375 10.390625 C-2.39019531 10.92171875 -2.69054687 11.4528125 -3 12 C-3.33 12 -3.66 12 -4 12 C-4.24339186 6.52368308 -3.01840125 4.52760188 0 0 Z " fill="#6D706A" transform="translate(94,334)"/>
<path d="M0 0 C1.34780093 2.69560185 0.67336458 3.742617 -0.25 6.5625 C-0.50265625 7.36816406 -0.7553125 8.17382812 -1.015625 9.00390625 C-1.34046875 9.66261719 -1.6653125 10.32132812 -2 11 C-2.99 11.33 -3.98 11.66 -5 12 C-4.54738642 10.56068883 -4.08767021 9.12361001 -3.625 7.6875 C-3.24214844 6.48673828 -3.24214844 6.48673828 -2.8515625 5.26171875 C-2 3 -2 3 0 0 Z " fill="#757A75" transform="translate(183,293)"/>
<path d="M0 0 C0.99 0 1.98 0 3 0 C1.94124926 3.40312738 0.99097846 6.01353231 -1 9 C-1.66 9 -2.32 9 -3 9 C-2.67 7.35 -2.34 5.7 -2 4 C-1.01 3.67 -0.02 3.34 1 3 C0.67 2.01 0.34 1.02 0 0 Z " fill="#767B75" transform="translate(122,274)"/>
<path d="M0 0 C1.32 0.33 2.64 0.66 4 1 C4.66 4.3 5.32 7.6 6 11 C3.05321567 8.05321567 1.67958081 5.75906182 0 2 C0 1.34 0 0.68 0 0 Z " fill="#747973" transform="translate(419,261)"/>
<path d="M0 0 C0.66 0 1.32 0 2 0 C0.68938409 4.23429756 -0.94356259 8.07407404 -3 12 C-3.33 12 -3.66 12 -4 12 C-4 10.35 -4 8.7 -4 7 C-3.34 7 -2.68 7 -2 7 C-1.855625 6.030625 -1.71125 5.06125 -1.5625 4.0625 C-1 1 -1 1 0 0 Z " fill="#525752" transform="translate(151,215)"/>
<path d="M0 0 C3.75376152 1.25125384 4.24073289 2.5652404 6 6 C6 6.66 6 7.32 6 8 C4.125 7.75 4.125 7.75 2 7 C0.27898465 4.41847698 0 3.15081975 0 0 Z " fill="#383F38" transform="translate(418,206)"/>
<path d="M0 0 C1.57554035 2.88628401 2.46276373 5.53342384 3.125 8.75 C3.29257812 9.54921875 3.46015625 10.3484375 3.6328125 11.171875 C3.81457031 12.07679688 3.81457031 12.07679688 4 13 C1.25207517 9.59780735 -2 5.51535412 -2 1 C-1.34 0.67 -0.68 0.34 0 0 Z " fill="#656A62" transform="translate(267,165)"/>
<path d="M0 0 C0.99 0.33 1.98 0.66 3 1 C3 2.32 3 3.64 3 5 C3.66 5 4.32 5 5 5 C5.33 7.31 5.66 9.62 6 12 C0 4.28571429 0 4.28571429 0 0 Z " fill="#6E756E" transform="translate(367,152)"/>
<path d="M0 0 C0 0.99 0 1.98 0 3 C-3.83887763 4.48320272 -6.06204091 5.22419163 -10 4 C-8.71086513 3.32845067 -7.41859796 2.66291141 -6.125 2 C-5.40570313 1.62875 -4.68640625 1.2575 -3.9453125 0.875 C-2 0 -2 0 0 0 Z " fill="#505450" transform="translate(158,382)"/>
<path d="M0 0 C1 2 1 2 0.25 5.5625 C-0.1625 6.696875 -0.575 7.83125 -1 9 C-1.99 9.33 -2.98 9.66 -4 10 C-3.43454163 6.04179141 -2.19097652 3.3340947 0 0 Z " fill="#7C807C" transform="translate(88,292)"/>
<path d="M0 0 C2.32472205 2.85306797 3.7508258 5.54074837 5 9 C4.01 9.33 3.02 9.66 2 10 C-0.09350689 6.5980513 -0.17942163 3.94727588 0 0 Z " fill="#444A45" transform="translate(388,140)"/>
<path d="M0 0 C4.42857143 5.14285714 4.42857143 5.14285714 5 9 C3.68 8.67 2.36 8.34 1 8 C0.67 5.36 0.34 2.72 0 0 Z " fill="#626962" transform="translate(380,123)"/>
<path d="M0 0 C2 2 2 2 2 5 C2.66 5.33 3.32 5.66 4 6 C4 6.99 4 7.98 4 9 C2.0625 8.1875 2.0625 8.1875 0 7 C-1.04449911 3.86650268 -0.93423645 3.01031744 0 0 Z " fill="#5B605B" transform="translate(270,120)"/>
<path d="M0 0 C0.33 0 0.66 0 1 0 C1.28571429 8.57142857 1.28571429 8.57142857 -1 12 C-2.32 11.34 -3.64 10.68 -5 10 C-4.360625 9.649375 -3.72125 9.29875 -3.0625 8.9375 C-0.17836168 6.22815794 -0.2899178 3.84141089 0 0 Z " fill="#707670" transform="translate(476,378)"/>
<path d="M0 0 C0.66 0 1.32 0 2 0 C1.25 7.75 1.25 7.75 -1 10 C-1.02689216 8.52093108 -1.04634621 7.04172517 -1.0625 5.5625 C-1.07410156 4.73878906 -1.08570313 3.91507812 -1.09765625 3.06640625 C-1 1 -1 1 0 0 Z " fill="#575D56" transform="translate(499,385)"/>
<path d="M0 0 C0.66 0 1.32 0 2 0 C5.27037599 3.27037599 5.56856013 6.5130254 6 11 C0 3.28571429 0 3.28571429 0 0 Z " fill="#626861" transform="translate(463,352)"/>
<path d="M0 0 C0.66 0.33 1.32 0.66 2 1 C1 4 1 4 -1 5 C-2.99960012 5.039992 -5.00047242 5.04346799 -7 5 C-2.25 1.125 -2.25 1.125 0 0 Z " fill="#656A67" transform="translate(290,314)"/>
<path d="M0 0 C2 2 2 2 2 5 C1.34 5 0.68 5 0 5 C-0.66 6.98 -1.32 8.96 -2 11 C-2.66 11 -3.32 11 -4 11 C-2.7874262 7.27566618 -1.49140021 3.62197194 0 0 Z " fill="#434A43" transform="translate(83,302)"/>
<path d="M0 0 C3.8063457 0.67170806 7.35206816 1.72746564 11 3 C11 3.66 11 4.32 11 5 C7.37 4.01 3.74 3.02 0 2 C0 1.34 0 0.68 0 0 Z " fill="#717471" transform="translate(381,299)"/>
<path d="M0 0 C1.5027237 0.97498145 3.00211963 1.95509389 4.5 2.9375 C5.3353125 3.48277344 6.170625 4.02804687 7.03125 4.58984375 C7.6809375 5.05519531 8.330625 5.52054687 9 6 C9 6.33 9 6.66 9 7 C7.35 7 5.7 7 4 7 C4 6.01 4 5.02 4 4 C3.01 4 2.02 4 1 4 C0.67 2.68 0.34 1.36 0 0 Z " fill="#5A625A" transform="translate(409,285)"/>
<path d="M0 0 C1 2 1 2 0.44140625 4.1640625 C0.15136719 4.97617187 -0.13867188 5.78828125 -0.4375 6.625 C-0.72496094 7.44226563 -1.01242188 8.25953125 -1.30859375 9.1015625 C-1.53675781 9.72804688 -1.76492187 10.35453125 -2 11 C-2.66 10.67 -3.32 10.34 -4 10 C-3.52449439 8.51965236 -3.04448784 7.04074979 -2.5625 5.5625 C-2.29566406 4.73878906 -2.02882812 3.91507812 -1.75390625 3.06640625 C-1 1 -1 1 0 0 Z " fill="#6D716D" transform="translate(193,272)"/>
<path d="M0 0 C-1.69179328 2.04219706 -2.63727666 2.91793306 -5.26171875 3.51171875 C-6.06222656 3.56972656 -6.86273438 3.62773438 -7.6875 3.6875 C-8.49574219 3.75324219 -9.30398437 3.81898437 -10.13671875 3.88671875 C-10.75160156 3.92410156 -11.36648437 3.96148437 -12 4 C-11 2 -11 2 -8.25 0.875 C-5.29813104 0.08026605 -3.02780163 -0.17810598 0 0 Z " fill="#686D69" transform="translate(259,34)"/>
<path d="M0 0 C2 1 2 1 2.8515625 3.06640625 C3.10679687 3.89011719 3.36203125 4.71382813 3.625 5.5625 C3.88539063 6.38878906 4.14578125 7.21507812 4.4140625 8.06640625 C4.60742188 8.70449219 4.80078125 9.34257812 5 10 C2 9 2 9 0.8125 6.6875 C0 4 0 4 0 0 Z " fill="#646963" transform="translate(454,356)"/>
<path d="M0 0 C2.375 0.3125 2.375 0.3125 5 1 C5.66 1.99 6.32 2.98 7 4 C6.67 4.99 6.34 5.98 6 7 C3 5 3 5 2 2 C1.34 1.34 0.68 0.68 0 0 Z " fill="#585F58" transform="translate(290,308)"/>
<path d="M0 0 C2.64465038 3.1254959 3.84414715 6.08788267 5 10 C4.01 9.67 3.02 9.34 2 9 C2 8.01 2 7.02 2 6 C1.34 5.67 0.68 5.34 0 5 C0 3.35 0 1.7 0 0 Z " fill="#565B55" transform="translate(442,252)"/>
<path d="M0 0 C0.99 0 1.98 0 3 0 C1.77472971 4.05281712 0.30119506 7.44360764 -2 11 C-3 9 -3 9 -2.44140625 6.8359375 C-2.15136719 6.02382813 -1.86132812 5.21171875 -1.5625 4.375 C-1.27503906 3.55773437 -0.98757812 2.74046875 -0.69140625 1.8984375 C-0.46324219 1.27195313 -0.23507813 0.64546875 0 0 Z " fill="#8C928E" transform="translate(133,251)"/>
<path d="M0 0 C2.96404505 2.80804268 5.44499019 5.18315774 7 9 C3.73539027 7.19587357 2.11070205 6.16605307 0 3 C0 2.01 0 1.02 0 0 Z " fill="#373C37" transform="translate(238,109)"/>
<path d="M0 0 C3.44216672 2.6598561 3.99504674 5.90288286 5 10 C2 9 2 9 0.8125 6.6875 C0 4 0 4 0 0 Z " fill="#6A6E6A" transform="translate(353,67)"/>
<path d="M0 0 C1.9375 0.625 1.9375 0.625 4 2 C4.75 5.125 4.75 5.125 5 8 C2.5 5.6875 2.5 5.6875 0 3 C0 2.01 0 1.02 0 0 Z " fill="#363E36" transform="translate(349,63)"/>
<path d="M0 0 C1.4370809 -0.05422947 2.87475462 -0.09289723 4.3125 -0.125 C5.11300781 -0.14820313 5.91351563 -0.17140625 6.73828125 -0.1953125 C9 0 9 0 12 2 C9.03 1.67 6.06 1.34 3 1 C2.67 1.66 2.34 2.32 2 3 C1.01 3 0.02 3 -1 3 C-0.67 2.01 -0.34 1.02 0 0 Z " fill="#49514A" transform="translate(303,35)"/>
<path d="M0 0 C0.33 0.66 0.66 1.32 1 2 C4.465 1.505 4.465 1.505 8 1 C5.04816899 3.95183101 2.04488053 4.08663988 -2 5 C-1.34 3.35 -0.68 1.7 0 0 Z " fill="#363C36" transform="translate(196,385)"/>
<path d="M0 0 C0 0.66 0 1.32 0 2 C-2.25 3.75 -2.25 3.75 -5 5 C-7.3125 4.1875 -7.3125 4.1875 -9 3 C-2.25 0 -2.25 0 0 0 Z " fill="#656964" transform="translate(194,364)"/>
<path d="M0 0 C1.5 1.375 1.5 1.375 3 3 C3 3.66 3 4.32 3 5 C2.01 5.495 2.01 5.495 1 6 C-0.13350534 8.01669827 -0.13350534 8.01669827 -1 10 C-2.31223496 6.06329512 -1.24296256 3.87511856 0 0 Z " fill="#283129" transform="translate(60,350)"/>
<path d="M0 0 C0.66 0.99 1.32 1.98 2 3 C1.01 4.98 0.02 6.96 -1 9 C-1.66 9 -2.32 9 -3 9 C-2.01 6.03 -1.02 3.06 0 0 Z " fill="#585D59" transform="translate(64,341)"/>
<path d="M0 0 C2.15377564 2.62198774 3.40072174 4.64404172 4 8 C2.68 7.67 1.36 7.34 0 7 C0 4.69 0 2.38 0 0 Z " fill="#495249" transform="translate(327,318)"/>
<path d="M0 0 C6.625 0.75 6.625 0.75 10 3 C2.25 3.125 2.25 3.125 0 2 C0 1.34 0 0.68 0 0 Z " fill="#596058" transform="translate(386,276)"/>
<path d="M0 0 C3.80984844 2.77079887 4.06840752 6.62868145 5 11 C4.34 11 3.68 11 3 11 C1.38935371 7.34920174 0.55105909 3.9492568 0 0 Z " fill="#707471" transform="translate(447,262)"/>
<path d="M0 0 C0.66 0 1.32 0 2 0 C2 0.99 2 1.98 2 3 C2.66 3 3.32 3 4 3 C4.33 5.31 4.66 7.62 5 10 C2.35534962 6.8745041 1.15585285 3.91211733 0 0 Z " fill="#696F69" transform="translate(304,247)"/>
<path d="M0 0 C0.66 0 1.32 0 2 0 C0.77472971 4.05281712 -0.69880494 7.44360764 -3 11 C-3.33 10.34 -3.66 9.68 -4 9 C-3.22265625 6.8359375 -3.22265625 6.8359375 -2.0625 4.375 C-1.68222656 3.55773437 -1.30195313 2.74046875 -0.91015625 1.8984375 C-0.60980469 1.27195313 -0.30945313 0.64546875 0 0 Z " fill="#868986" transform="translate(239,231)"/>
<path d="M0 0 C0.33 0 0.66 0 1 0 C0.67 2.31 0.34 4.62 0 7 C-0.99 7.33 -1.98 7.66 -3 8 C-2.45276317 4.62537285 -1.9451 2.91765 0 0 Z " fill="#6B706B" transform="translate(128,209)"/>
<path d="M0 0 C0.66 0 1.32 0 2 0 C1.67 1.32 1.34 2.64 1 4 C0.34 4 -0.32 4 -1 4 C-1.33 5.65 -1.66 7.3 -2 9 C-2.66 9 -3.32 9 -4 9 C-2.94124926 5.59687262 -1.99097846 2.98646769 0 0 Z " fill="#6E726D" transform="translate(133,199)"/>
<path d="M0 0 C2.95183101 2.95183101 3.08663988 5.95511947 4 10 C3.34 10 2.68 10 2 10 C-0.09350689 6.5980513 -0.17942163 3.94727588 0 0 Z " fill="#616860" transform="translate(301,184)"/>
<path d="M0 0 C6.75 -0.125 6.75 -0.125 9 1 C9 1.66 9 2.32 9 3 C6.03 2.67 3.06 2.34 0 2 C0 1.34 0 0.68 0 0 Z " fill="#555A54" transform="translate(298,57)"/>
<path d="M0 0 C6.52307692 0.61538462 6.52307692 0.61538462 8.9375 2.5625 C9.288125 3.036875 9.63875 3.51125 10 4 C3.47692308 3.38461538 3.47692308 3.38461538 1.0625 1.4375 C0.711875 0.963125 0.36125 0.48875 0 0 Z " fill="#575D57" transform="translate(72,409)"/>
<path d="M0 0 C-1.32 1.32 -2.64 2.64 -4 4 C-5.32 3.01 -6.64 2.02 -8 1 C-5.29120665 -0.35439668 -2.99066732 -0.06501451 0 0 Z " fill="#484D47" transform="translate(235,345)"/>
<path d="M0 0 C0.99 0 1.98 0 3 0 C1.77263971 4.15414253 0.672336 6.43688534 -2 10 C-1.34 6.7 -0.68 3.4 0 0 Z " fill="#6B6F6A" transform="translate(87,346)"/>
<path d="M0 0 C2.15377564 2.62198774 3.40072174 4.64404172 4 8 C3.01 8 2.02 8 1 8 C-0.35439668 5.29120665 -0.06501451 2.99066732 0 0 Z " fill="#747975" transform="translate(331,326)"/>
<path d="M0 0 C1 3 1 3 0.22265625 4.82421875 C-0.8515625 6.54947917 -1.92578125 8.27473958 -3 10 C-3.33 10 -3.66 10 -4 10 C-3.38461538 3.47692308 -3.38461538 3.47692308 -1.4375 1.0625 C-0.7259375 0.5365625 -0.7259375 0.5365625 0 0 Z " fill="#798078" transform="translate(197,320)"/>
<path d="M0 0 C0.66 0 1.32 0 2 0 C2 0.66 2 1.32 2 2 C2.99 1.67 3.98 1.34 5 1 C4.67 2.98 4.34 4.96 4 7 C3.67 6.34 3.34 5.68 3 5 C2.34 5 1.68 5 1 5 C0.67 3.35 0.34 1.7 0 0 Z " fill="#343C34" transform="translate(314,267)"/>
<path d="M0 0 C1.9375 1.0625 1.9375 1.0625 4 3 C4.75 6.6875 4.75 6.6875 5 10 C2.35534962 6.8745041 1.15585285 3.91211733 0 0 Z " fill="#454B43" transform="translate(309,257)"/>
<path d="M0 0 C0.99 0 1.98 0 3 0 C1.25 5.75 1.25 5.75 -1 8 C-2 6 -2 6 -1.0625 2.875 C-0.5365625 1.451875 -0.5365625 1.451875 0 0 Z " fill="#505550" transform="translate(137,242)"/>
<path d="M0 0 C2.50298434 2.93828597 3.46930939 5.17902761 4 9 C3.01 8.67 2.02 8.34 1 8 C-0.35439668 5.29120665 -0.06501451 2.99066732 0 0 Z " fill="#6D776D" transform="translate(393,149)"/>
<path d="M0 0 C0.99 0.33 1.98 0.66 3 1 C2 3 2 3 -1.0625 4.125 C-2.5165625 4.558125 -2.5165625 4.558125 -4 5 C-4.33 4.34 -4.66 3.68 -5 3 C-2.6875 1.4375 -2.6875 1.4375 0 0 Z " fill="#515752" transform="translate(244,363)"/>
<path d="M0 0 C-1.28650706 0.69710731 -2.57940665 1.38242876 -3.875 2.0625 C-4.95394531 2.63677734 -4.95394531 2.63677734 -6.0546875 3.22265625 C-6.69664062 3.47917969 -7.33859375 3.73570312 -8 4 C-8.66 3.67 -9.32 3.34 -10 3 C-6.86618053 -0.60389239 -4.59270471 -1.53090157 0 0 Z " fill="#606560" transform="translate(283,347)"/>
<path d="M0 0 C0.33 0.66 0.66 1.32 1 2 C0.06553465 4.03144641 -0.93224776 6.03533587 -2 8 C-2.66 8 -3.32 8 -4 8 C-3.6875 5.125 -3.6875 5.125 -3 2 C-2.01 1.34 -1.02 0.68 0 0 Z " fill="#414640" transform="translate(192,330)"/>
<path d="M0 0 C0.66 0.33 1.32 0.66 2 1 C2 5 2 5 1 8 C0.34 8 -0.32 8 -1 8 C-1.125 2.25 -1.125 2.25 0 0 Z " fill="#39403A" transform="translate(105,256)"/>
<path d="M0 0 C0.66 0 1.32 0 2 0 C0.25 5.75 0.25 5.75 -2 8 C-2.125 5.125 -2.125 5.125 -2 2 C-1.34 1.34 -0.68 0.68 0 0 Z " fill="#5F6560" transform="translate(176,163)"/>
<path d="M0 0 C2.50298434 2.93828597 3.46930939 5.17902761 4 9 C2.68 8.34 1.36 7.68 0 7 C0 4.69 0 2.38 0 0 Z " fill="#787C76" transform="translate(246,149)"/>
<path d="M0 0 C2.15377564 2.62198774 3.40072174 4.64404172 4 8 C2.35 7.01 0.7 6.02 -1 5 C-0.67 3.35 -0.34 1.7 0 0 Z " fill="#555D57" transform="translate(276,133)"/>
<path d="M0 0 C2.15377564 2.62198774 3.40072174 4.64404172 4 8 C3.01 8 2.02 8 1 8 C0.67 5.36 0.34 2.72 0 0 Z " fill="#4B524B" transform="translate(368,98)"/>
<path d="M0 0 C2.9375 0.75 2.9375 0.75 6 2 C6.875 4.125 6.875 4.125 7 6 C4 5 4 5 2 3 C1.34 2.67 0.68 2.34 0 2 C0 1.34 0 0.68 0 0 Z " fill="#313830" transform="translate(258,104)"/>
<path d="M0 0 C0.33 0.66 0.66 1.32 1 2 C1.66 2 2.32 2 3 2 C4.35439668 4.70879335 4.06501451 7.00933268 4 10 C0 4 0 4 0 0 Z " fill="#414942" transform="translate(227,85)"/>
<path d="" fill="#FFFFFF" transform="translate(0,0)"/>
<path d="" fill="#FFFFFF" transform="translate(0,0)"/>
<path d="" fill="#FFFFFF" transform="translate(0,0)"/>
<path d="" fill="#FFFFFF" transform="translate(0,0)"/>
<path d="" fill="#FFFFFF" transform="translate(0,0)"/>
<path d="" fill="#FFFFFF" transform="translate(0,0)"/>
<path d="" fill="#FFFFFF" transform="translate(0,0)"/>
<path d="" fill="#FFFFFF" transform="translate(0,0)"/>
<path d="" fill="#FFFFFF" transform="translate(0,0)"/>
<path d="" fill="#FFFFFF" transform="translate(0,0)"/>
<path d="" fill="#FFFFFF" transform="translate(0,0)"/>
<path d="" fill="#FFFFFF" transform="translate(0,0)"/>
<path d="" fill="#FFFFFF" transform="translate(0,0)"/>
<path d="" fill="#FFFFFF" transform="translate(0,0)"/>
<path d="" fill="#FFFFFF" transform="translate(0,0)"/>
<path d="" fill="#FFFFFF" transform="translate(0,0)"/>
<path d="" fill="#FFFFFF" transform="translate(0,0)"/>
<path d="" fill="#FFFFFF" transform="translate(0,0)"/>
<path d="" fill="#FFFFFF" transform="translate(0,0)"/>
<path d="" fill="#FFFFFF" transform="translate(0,0)"/>
<path d="" fill="#FFFFFF" transform="translate(0,0)"/>
<path d="" fill="#FFFFFF" transform="translate(0,0)"/>
<path d="" fill="#FFFFFF" transform="translate(0,0)"/>
<path d="" fill="#FFFFFF" transform="translate(0,0)"/>
<path d="" fill="#FFFFFF" transform="translate(0,0)"/>
<path d="" fill="#FFFFFF" transform="translate(0,0)"/>
<path d="" fill="#FFFFFF" transform="translate(0,0)"/>
<path d="" fill="#FFFFFF" transform="translate(0,0)"/>
<path d="" fill="#FFFFFF" transform="translate(0,0)"/>
<path d="" fill="#FFFFFF" transform="translate(0,0)"/>
<path d="" fill="#FFFFFF" transform="translate(0,0)"/>
<path d="" fill="#FFFFFF" transform="translate(0,0)"/>
<path d="" fill="#FFFFFF" transform="translate(0,0)"/>
<path d="" fill="#FFFFFF" transform="translate(0,0)"/>
<path d="" fill="#FFFFFF" transform="translate(0,0)"/>
<path d="" fill="#FFFFFF" transform="translate(0,0)"/>
<path d="" fill="#FFFFFF" transform="translate(0,0)"/>
<path d="" fill="#FFFFFF" transform="translate(0,0)"/>
<path d="" fill="#FFFFFF" transform="translate(0,0)"/>
<path d="" fill="#FFFFFF" transform="translate(0,0)"/>
<path d="" fill="#FFFFFF" transform="translate(0,0)"/>
<path d="" fill="#FFFFFF" transform="translate(0,0)"/>
<path d="" fill="#FFFFFF" transform="translate(0,0)"/>
<path d="" fill="#FFFFFF" transform="translate(0,0)"/>
<path d="" fill="#FFFFFF" transform="translate(0,0)"/>
<path d="" fill="#FFFFFF" transform="translate(0,0)"/>
<path d="" fill="#FFFFFF" transform="translate(0,0)"/>
<path d="" fill="#FFFFFF" transform="translate(0,0)"/>
<path d="" fill="#FFFFFF" transform="translate(0,0)"/>
<path d="" fill="#FFFFFF" transform="translate(0,0)"/>
<path d="" fill="#FFFFFF" transform="translate(0,0)"/>
<path d="" fill="#FFFFFF" transform="translate(0,0)"/>
<path d="" fill="#FFFFFF" transform="translate(0,0)"/>
<path d="" fill="#FFFFFF" transform="translate(0,0)"/>
<path d="" fill="#FFFFFF" transform="translate(0,0)"/>
<path d="" fill="#FFFFFF" transform="translate(0,0)"/>
<path d="" fill="#FFFFFF" transform="translate(0,0)"/>
<path d="" fill="#FFFFFF" transform="translate(0,0)"/>
<path d="" fill="#FFFFFF" transform="translate(0,0)"/>
<path d="" fill="#FFFFFF" transform="translate(0,0)"/>
<path d="" fill="#FFFFFF" transform="translate(0,0)"/>
<path d="" fill="#FFFFFF" transform="translate(0,0)"/>
</svg>
